<svg xmlns="http://www.w3.org/2000/svg" viewBox="0 0 176.15 151.09"><defs><style>.cls-1{fill:#ff5e00;}.cls-2{fill:#2c2c2c;}</style></defs><title>Fichier 47</title><g id="Calque_2" data-name="Calque 2"><g id="Calque_1-2" data-name="Calque 1"><path class="cls-1" d="M118.77,94.62c.15-1.72.24-3.46.24-5.21A59.8,59.8,0,0,0,81.72,34l-4.31-3.3C83.58,14.85,94.88,5.32,118.23,5.44S160.8,25.75,160.8,49.62a46.06,46.06,0,0,1-17.05,35.82l12.1,6.25s1.5,1,1.14,2.29a2.21,2.21,0,0,1-2,1.82H124.07a46,46,0,0,1-4.72-.24Z"/><path class="cls-2" d="M59.26,110.11v1.28c0,6.09,9.85,6,9.85,0v-1.28C69.11,104.09,59.26,104,59.26,110.11Z"/><path class="cls-2" d="M79.27,76.41c-.76-7.44-6.7-13.76-16.1-13.76-9.78,0-13.08,4.59-15.79,8.65-2.49,5,4.73,9.63,7.89,5,2-3.38,4.74-4.28,7.9-4.28s6.62,2.55,6.62,5.86c0,4.51-2.71,6.24-7.3,7.9a4.64,4.64,0,0,0-3.23,4.74V97c0,6.39,9.55,6,9.55,0V93A16,16,0,0,0,79.27,76.41Z"/><path class="cls-2" d="M7.66,140.87l.19-.11L20,134.46A62.18,62.18,0,0,1,0,88.63c0-.87,0-1.72.05-2.57a2.69,2.69,0,0,1,2.77-2.55,2.66,2.66,0,0,1,2.55,2.76c0,.78,0,1.57,0,2.36A56.93,56.93,0,0,0,26.42,133a2.65,2.65,0,0,1-.46,4.42l-15.5,8a1.2,1.2,0,0,0-.23.22c0,.11.09.14.13.15h52.1a56.87,56.87,0,0,0,31-9.13,2.66,2.66,0,0,1,2.89,4.47,62.23,62.23,0,0,1-33.89,10H10.24A5.54,5.54,0,0,1,5,146.78a5.19,5.19,0,0,1-.16-1.23A6,6,0,0,1,7.66,140.87Z"/><path class="cls-2" d="M102.2,129.69a2.66,2.66,0,1,0,3.7,3.83,62,62,0,0,0,18.38-36c1,.06,2,.11,3,.11h40.32a4.89,4.89,0,0,0,4.62-3.82,4.82,4.82,0,0,0-2.3-5.2l-.2-.11-8.64-4.47A48.84,48.84,0,1,0,82.49,29.44,62.53,62.53,0,0,0,1.73,74,2.66,2.66,0,1,0,6.9,75.22,57.15,57.15,0,0,1,107.72,53.74h0a57.16,57.16,0,0,1-5.52,75.95Zm22.61-37.41c.06-1.21.11-2.43.11-3.65a61.85,61.85,0,0,0-13-38.14h0A62.33,62.33,0,0,0,87.46,31.35a43.52,43.52,0,1,1,67.31,51.24,2.66,2.66,0,0,0,.45,4.43l10.32,5.33H127.32C126.48,92.35,125.64,92.32,124.81,92.28Z"/></g></g></svg>