<svg xmlns="http://www.w3.org/2000/svg" viewBox="0 0 331.87 466.12"><defs><style>.cls-1{fill:#005ca9;}.cls-2{fill:#2c2c2c;}</style></defs><title>Fichier 39</title><g id="Calque_2" data-name="Calque 2"><g id="Calque_1-2" data-name="Calque 1"><path class="cls-1" d="M197.4,47.83H182.32V32.74a6,6,0,0,0-6-6H165.38a6,6,0,0,0-6,6V47.83H144.29a6,6,0,0,0-6,6V64.77a6,6,0,0,0,6,6h15.08V85.86a6,6,0,0,0,6,6h10.94a6,6,0,0,0,6-6V70.78H197.4a6,6,0,0,0,6-6V53.83A6,6,0,0,0,197.4,47.83Z"/><path class="cls-2" d="M325,452.36H306.74v-39a6.89,6.89,0,0,0-13.77,0v39H266.28V346.82A7.11,7.11,0,0,0,266,345c0-.12,0-.23,0-.35V315.62a6.88,6.88,0,0,0-6.88-6.89H79.67a6.88,6.88,0,0,0-6.88,6.89v29.05a6.92,6.92,0,0,0,.37,2.14,6.87,6.87,0,0,0-.14,1.38V458a6.88,6.88,0,0,0,6.88,6.88H80a6.88,6.88,0,0,0,4,1.27H325a6.88,6.88,0,1,0,0-13.76ZM86.78,351.56h19v100.8h-19Zm32.79,0h43v100.8h-43Zm56.73,0h43.43v100.8H176.3Zm57.2,0h19v100.8h-19ZM86.55,322.5H252.28v15.29H86.55Z"/><path class="cls-2" d="M53.69,452.36H46.1v-307H293v218.4a6.89,6.89,0,0,0,13.77,0V143.82H321a6.88,6.88,0,0,0,6.88-6.88v-29.6a6.88,6.88,0,0,0-6.88-6.88h-56.9V6.88A6.88,6.88,0,0,0,257.18,0H81.89A6.88,6.88,0,0,0,75,6.88v93.58H18.11a6.88,6.88,0,0,0-6.88,6.88v29.6a6.88,6.88,0,0,0,6.88,6.88H32.33V452.36H6.88a6.88,6.88,0,1,0,0,13.76H53.69a6.88,6.88,0,1,0,0-13.76ZM88.77,13.77H250.29V100H88.77ZM25,114.23H314.08v15.83H25Z"/><path class="cls-2" d="M196.1,41.38h-9.58V31.79A11.53,11.53,0,0,0,175,20.28H164.07a11.53,11.53,0,0,0-11.51,11.51v9.59H143a11.53,11.53,0,0,0-11.52,11.51V63.82A11.53,11.53,0,0,0,143,75.33h9.58v9.58a11.52,11.52,0,0,0,11.51,11.51H175a11.53,11.53,0,0,0,11.51-11.51V75.33h9.58a11.53,11.53,0,0,0,11.51-11.51V52.89A11.53,11.53,0,0,0,196.1,41.38Zm.49,22.44a.51.51,0,0,1-.49.5H181a5.51,5.51,0,0,0-5.51,5.51V84.91a.51.51,0,0,1-.49.5H164.07a.52.52,0,0,1-.5-.5V69.83a5.51,5.51,0,0,0-5.51-5.51H143a.51.51,0,0,1-.5-.5V52.89a.51.51,0,0,1,.5-.5h15.08a5.51,5.51,0,0,0,5.51-5.51V31.79a.52.52,0,0,1,.5-.49H175a.52.52,0,0,1,.49.49V46.88A5.51,5.51,0,0,0,181,52.39H196.1a.51.51,0,0,1,.49.5Z"/><path class="cls-2" d="M90.68,226.37a6.88,6.88,0,0,0-6.88,6.88v10.1a6.88,6.88,0,0,0,6.88,6.88h50.48a6.88,6.88,0,0,0,6.88-6.88V192.87a6.88,6.88,0,0,0-6.88-6.88H90.68a6.88,6.88,0,0,0-6.88,6.88V203a6.88,6.88,0,1,0,13.76,0v-3.22h36.71v36.71H97.56v-3.21A6.88,6.88,0,0,0,90.68,226.37Z"/><path class="cls-2" d="M199,186a6.88,6.88,0,0,0-6.89,6.88v50.48a6.88,6.88,0,0,0,6.89,6.88h50.47a6.88,6.88,0,0,0,6.88-6.88V192.87a6.88,6.88,0,0,0-6.88-6.88Zm43.59,50.47H205.85V199.75h36.71Z"/></g></g></svg>