<svg xmlns="http://www.w3.org/2000/svg" viewBox="0 0 208.47 335.79"><defs><style>.cls-1{fill:#09b6a9;}.cls-2,.cls-3{fill:#2c2c2c;}.cls-3,.cls-4{stroke:#4d4d4d;stroke-miterlimit:10;stroke-width:2.5px;}.cls-4{fill:none;}</style></defs><title>Fichier 45</title><g id="Calque_2" data-name="Calque 2"><g id="Calque_1-2" data-name="Calque 1"><path class="cls-1" d="M60,174.63s51.53,28.09,87.43,1.43c0,0-14.55,49.41-41.93,61C105.49,237.08,56.92,212.57,60,174.63Z"/><path class="cls-2" d="M45.27,75.07V55.53A55.59,55.59,0,0,1,100.8,0a41.07,41.07,0,0,1,39.78,30.76,3.66,3.66,0,1,1-7.09,1.84C122.17-11.11,52.6,5.38,52.6,55.53V75.07C52.6,79.91,45.27,79.91,45.27,75.07Z"/><path class="cls-2" d="M160.17,73.88V44.59c0-14.85-15.4-26.36-31.33-25.77-4.78.28-5.17-7.15-.26-7.33,20.66-.69,38.92,14.43,38.92,33.1V73.88C167.5,78.72,160.17,78.73,160.17,73.88Z"/><path class="cls-2" d="M52.22,89.34C43.15,87,59.68,67,66.34,60.19A3.72,3.72,0,0,1,69,59.09c17.58,0,46.9-4.58,66.59-13.08,4.42-1.93,7.36,4.8,2.9,6.73-20,8.63-49.46,13.4-67.91,13.67-4.12,4.4-12.31,14.1-13.88,20.28A3.66,3.66,0,0,1,52.22,89.34Z"/><path class="cls-2" d="M152.63,86.77C147.19,67.11,125.75,57,125.54,56.9c-4.41-2-1.32-8.68,3.07-6.65,1,.47,24.75,11.66,31.08,34.56C161,89.48,153.92,91.44,152.63,86.77Z"/><path class="cls-2" d="M99.68,260c-4.8,0-4.81-7.27,0-7.27S104.49,260,99.68,260Z"/><path class="cls-2" d="M99.68,278.34c-4.8,0-4.81-7.26,0-7.26S104.49,278.34,99.68,278.34Z"/><path class="cls-2" d="M159.29,108.08c-3.46-.68-4.94-5.73,1.63-10.34,1.93-1.36,3.92-2.76,5.2-8.07,1.88-7.81.8-14.2-2.92-11.6a3.66,3.66,0,0,1-5.1-.9c-5.47-7.83,22.19-15.06,15.14,14.22-1.92,8-5.64,10.61-8.11,12.34-1.39,1-1.47,1.12-1.54,1.46A3.68,3.68,0,0,1,159.29,108.08Z"/><path class="cls-2" d="M45.24,105.19c-.07-.34-.15-.48-1.55-1.46-2.46-1.73-6.18-4.35-8.1-12.34C30.69,71,43,67.27,49.83,72.06c4,2.79-.25,8.78-4.2,6-3.78-2.63-4.76,3.94-2.92,11.6,2.38,9.88,8.35,7.12,9.72,14.11C53.36,108.53,46.17,109.94,45.24,105.19Z"/><path class="cls-2" d="M104.37,168.37c-30.61.13-54-28.82-59.16-63.34-.72-4.79,6.52-5.89,7.24-1.09,5,33.09,26.64,57.11,51.51,57.11.51,0,.31,0,.91,0,24.86,0,46.52-24,51.5-57.11.72-4.79,8-3.71,7.25,1.09C158.56,138.65,135.77,168.48,104.37,168.37Z"/><path class="cls-2" d="M105.42,293H3.66A3.66,3.66,0,0,1,0,289.37c0-.16,0-55.53,0-55.69C1.76,205.36,19,180.81,41.9,170A3.66,3.66,0,1,1,45,176.65a65.36,65.36,0,0,0-27.76,25.64c-12.5,20.63-9.94,33.59-9.94,83.42h98.09a3.66,3.66,0,0,1,0,7.32Z"/><path class="cls-2" d="M201.15,289.37V234a70,70,0,0,0-10-31.73c-7.88-13-19-22.51-32.1-27.48a3.66,3.66,0,1,1,2.6-6.85c14.66,5.55,27,16.11,35.77,30.53a77.4,77.4,0,0,1,11,35.19c0,.16,0,55.53,0,55.69C208.47,294.21,201.15,294.22,201.15,289.37Z"/><path class="cls-2" d="M79.5,284.37c0-41.89-.82-41,2.19-42.31,4.77-2.09,58.93-10.92,62.07-73.78.23-4.79,7.56-4.5,7.31.37-1.42,28.49-13.73,65.36-64.24,79.5v36.22C86.83,289.21,79.5,289.21,79.5,284.37Z"/><path class="cls-2" d="M66.31,60.22,88,37.46C91.36,34,96.67,39,93.33,42.52L71.62,65.28C68.27,68.79,63,63.73,66.31,60.22Z"/><path class="cls-2" d="M102.16,241.19C73.42,229,53.45,199.65,56.69,167.43c.48-4.8,7.77-4.1,7.29.73a63.27,63.27,0,0,0-.32,6.47c0,24.92,17,49.51,41.35,59.81a3.66,3.66,0,0,1-2.85,6.75Z"/><path class="cls-2" d="M36.64,286.37V263.48c0-4.85,7.32-4.85,7.32,0v22.89C44,291.21,36.64,291.22,36.64,286.37Z"/><path class="cls-2" d="M93,100.52H80c-4.89,0-4.9-7.41,0-7.41H93a3.71,3.71,0,0,1,0,7.41Z"/><path class="cls-2" d="M133.75,100.52h-13c-4.89,0-4.9-7.41,0-7.41h13a3.71,3.71,0,0,1,0,7.41Z"/><path class="cls-2" d="M88.08,138.82c-3.91-3,.58-8.87,4.47-5.9,8.13,6.16,16.67,6.15,24.8,0,3.88-3,8.38,2.93,4.47,5.9C111.3,146.79,99.15,147.21,88.08,138.82Z"/><path class="cls-2" d="M58.21,170.43c-2.91-3.87,2.93-8.28,5.85-4.41a50.45,50.45,0,0,0,80.42-.18c2.91-3.9,8.76.51,5.87,4.38C127.55,200.79,81.13,200.85,58.21,170.43Z"/><path class="cls-3" d="M185.76,242a1.82,1.82,0,0,0-2.18-1.41l-61,13.12a1.84,1.84,0,0,0-1.41,2.18l2.58,12-5.38,1.16.77,3.59,5.39-1.16,1.89,8.79L121,281.49l.78,3.59,5.38-1.16,1.89,8.79-5.38,1.16.77,3.59,5.38-1.16,1.89,8.8-5.38,1.15.77,3.59,5.38-1.15,1.89,8.79L129,318.64l.77,3.59,5.39-1.16,2.58,12a1.84,1.84,0,0,0,2.18,1.41l61-13.12a1.82,1.82,0,0,0,1.4-2.18Zm-28,84.88L141,330.52l-2.2-10.22,5.48-1.18-.77-3.59L138,316.71l-1.89-8.8,5.48-1.17-.78-3.59-5.47,1.17-1.89-8.79,5.47-1.18-.77-3.58-5.47,1.17-1.89-8.79,5.47-1.18-.77-3.59L130,279.56l-1.89-8.79,5.47-1.18-.77-3.59-5.48,1.18L125.13,257l16.78-3.61,3.59-.77,37.06-8,15.82,73.58-37.06,8Z"/><line class="cls-4" x1="137.3" y1="264.48" x2="177.64" y2="255.65"/><line class="cls-4" x1="139.14" y1="272.86" x2="179.47" y2="264.02"/><line class="cls-4" x1="140.97" y1="281.23" x2="181.31" y2="272.4"/><line class="cls-4" x1="142.81" y1="289.61" x2="183.14" y2="280.77"/><line class="cls-4" x1="144.64" y1="297.98" x2="184.97" y2="289.15"/><line class="cls-4" x1="146.48" y1="306.36" x2="186.81" y2="297.53"/><line class="cls-4" x1="148.31" y1="314.74" x2="179.77" y2="307.85"/></g></g></svg>