<svg xmlns="http://www.w3.org/2000/svg" viewBox="0 0 236.95 333.69"><defs><style>.cls-1{fill:#005ca9;}.cls-2{fill:#2c2c2c;}</style></defs><title>Fichier 52</title><g id="Calque_2" data-name="Calque 2"><g id="Calque_1-2" data-name="Calque 1"><path class="cls-1" d="M142.14,34.57l-10.77-.06.06-10.77a4.31,4.31,0,0,0-4.27-4.31l-7.8,0A4.32,4.32,0,0,0,115,23.66L115,34.43l-10.77-.06a4.29,4.29,0,0,0-4.3,4.27l0,7.81a4.29,4.29,0,0,0,4.25,4.31l10.78.05-.06,10.78a4.3,4.3,0,0,0,4.27,4.3l7.81,0a4.3,4.3,0,0,0,4.31-4.26l0-10.77,10.77.05a4.32,4.32,0,0,0,4.32-4.27l0-7.81A4.29,4.29,0,0,0,142.14,34.57Z"/><path class="cls-2" d="M232.06,323.86l-13-.07.14-27.86a4.92,4.92,0,0,0-9.83-.05l-.14,27.86-19-.09.38-75.36a4.88,4.88,0,0,0-.18-1.28c0-.09,0-.16,0-.25l.11-20.75a4.93,4.93,0,0,0-4.89-4.94l-128.16-.65a4.91,4.91,0,0,0-4.94,4.89l-.11,20.75a5,5,0,0,0,.26,1.52,4.62,4.62,0,0,0-.1,1L52.14,327A4.91,4.91,0,0,0,57,331.9h.07a4.86,4.86,0,0,0,2.83.92l172.08.88a4.92,4.92,0,0,0,.05-9.83ZM62.35,251l13.58.07-.37,72L62,323Zm23.41.12,30.68.15-.37,72-30.68-.16Zm40.51.2,31,.16-.37,72-31-.16Zm40.84.21,13.57.07-.36,72-13.58-.07ZM62.29,230.28l118.33.6-.05,10.92-118.33-.6Z"/><path class="cls-2" d="M38.36,322.88l-5.42,0,1.11-219.19,176.26.9-.79,155.93a4.92,4.92,0,1,0,9.83.05l.8-157,10.15,0a4.9,4.9,0,0,0,4.94-4.89l.11-21.13a4.92,4.92,0,0,0-4.89-4.94l-40.62-.2.33-66.82A4.91,4.91,0,0,0,185.29.63L60.13,0a4.93,4.93,0,0,0-4.94,4.89L54.85,71.7l-40.62-.2a4.9,4.9,0,0,0-4.94,4.89L9.18,97.52a4.93,4.93,0,0,0,4.89,4.94l10.16.05L23.11,322.8l-18.17-.09a4.92,4.92,0,0,0-.05,9.83l33.42.17a4.92,4.92,0,0,0,0-9.83ZM65,9.85l115.32.59L180,72,64.68,71.45ZM19.09,81.35,225.5,82.4l-.06,11.3L19,92.65Z"/><path class="cls-2" d="M141.53,30l-6.85,0,0-6.84a8.23,8.23,0,0,0-8.18-8.26l-7.81,0A8.23,8.23,0,0,0,110.47,23l0,6.84-6.84,0a8.24,8.24,0,0,0-8.27,8.18l0,7.81A8.23,8.23,0,0,0,103.47,54l6.85,0,0,6.84a8.22,8.22,0,0,0,8.17,8.26l7.82,0A8.23,8.23,0,0,0,134.53,61l0-6.84,6.84,0A8.22,8.22,0,0,0,149.66,46l0-7.81A8.22,8.22,0,0,0,141.53,30Zm.27,16a.37.37,0,0,1-.36.35l-10.77-.06a3.93,3.93,0,0,0-3.95,3.92L126.66,61a.37.37,0,0,1-.35.35l-7.82,0a.37.37,0,0,1-.35-.36l.06-10.77a3.93,3.93,0,0,0-3.91-3.95l-10.78-.05a.37.37,0,0,1-.35-.36l0-7.81a.36.36,0,0,1,.36-.35l10.77,0a3.93,3.93,0,0,0,4-3.91L118.34,23a.37.37,0,0,1,.35-.36l7.81,0a.37.37,0,0,1,.35.36l0,10.77a3.93,3.93,0,0,0,3.91,3.95l10.78.06a.37.37,0,0,1,.35.36Z"/><path class="cls-2" d="M65.59,161.66a4.9,4.9,0,0,0-4.94,4.89l0,7.2a4.91,4.91,0,0,0,4.89,4.94l36,.19a4.91,4.91,0,0,0,4.94-4.89l.18-36a4.9,4.9,0,0,0-4.89-4.94l-36-.18a4.91,4.91,0,0,0-4.94,4.88l0,7.21a4.92,4.92,0,0,0,9.83.05v-2.29l26.21.13L96.68,169l-26.21-.13V166.6A4.91,4.91,0,0,0,65.59,161.66Z"/><path class="cls-2" d="M143.05,133.22a4.9,4.9,0,0,0-4.94,4.89l-.18,36a4.9,4.9,0,0,0,4.89,4.93l36,.19a4.91,4.91,0,0,0,4.93-4.89l.19-36a4.92,4.92,0,0,0-4.89-4.94ZM174,169.41l-26.21-.13.13-26.21,26.21.13Z"/></g></g></svg>