<svg xmlns="http://www.w3.org/2000/svg" viewBox="0 0 141.98 121.78"><defs><style>.cls-1{fill:#ff5e00;}.cls-2{fill:#2c2c2c;}</style></defs><title>Fichier 49</title><g id="Calque_2" data-name="Calque 2"><g id="Calque_1-2" data-name="Calque 1"><path class="cls-1" d="M95.73,76.26c.12-1.39.19-2.78.19-4.2a48.21,48.21,0,0,0-30-44.66l-3.48-2.65C67.36,12,76.47,4.29,95.29,4.39S129.6,20.75,129.6,40a37.12,37.12,0,0,1-13.74,28.87l9.75,5s1.21.77.92,1.85a1.79,1.79,0,0,1-1.65,1.46H100c-1.28,0-2.55-.07-3.8-.19Z"/><path class="cls-2" d="M47.76,88.74v1c0,4.91,7.94,4.85,7.94,0v-1C55.7,83.89,47.76,83.83,47.76,88.74Z"/><path class="cls-2" d="M63.89,61.59c-.61-6-5.4-11.1-13-11.1-7.88,0-10.54,3.7-12.72,7-2,4,3.81,7.76,6.36,4A6.69,6.69,0,0,1,50.91,58c2.67,0,5.34,2.06,5.34,4.73,0,3.63-2.18,5-5.88,6.36a3.74,3.74,0,0,0-2.61,3.82v5.22c0,5.15,7.7,4.85,7.7,0V75A12.93,12.93,0,0,0,63.89,61.59Z"/><path class="cls-2" d="M6.17,113.54a.51.51,0,0,1,.16-.09l9.82-5.08A50.13,50.13,0,0,1,0,71.43c0-.69,0-1.38,0-2.07A2.17,2.17,0,0,1,2.27,67.3a2.16,2.16,0,0,1,2.06,2.23c0,.63,0,1.26,0,1.9a45.89,45.89,0,0,0,17,35.73,2.15,2.15,0,0,1-.37,3.57L8.43,117.19a1.45,1.45,0,0,0-.18.17c0,.09.07.12.1.13h42a45.87,45.87,0,0,0,25-7.36,2.14,2.14,0,1,1,2.33,3.6,50.16,50.16,0,0,1-27.31,8H8.25a4.46,4.46,0,0,1-4.2-3.48,3.74,3.74,0,0,1-.13-1A4.8,4.8,0,0,1,6.17,113.54Z"/><path class="cls-2" d="M82.37,104.53a2.15,2.15,0,0,0-.05,3,2.15,2.15,0,0,0,3,0,49.85,49.85,0,0,0,14.82-29c.81,0,1.63.08,2.44.08h32.51a3.93,3.93,0,0,0,3.72-3.07A3.89,3.89,0,0,0,137,71.46l-.15-.09-7-3.61a39.36,39.36,0,1,0-63.38-44A50.41,50.41,0,0,0,1.39,59.62a2.14,2.14,0,1,0,4.17,1A46.07,46.07,0,0,1,86.82,43.31h0a46.09,46.09,0,0,1-4.45,61.22Zm18.22-30.16q.09-1.45.09-2.94A49.86,49.86,0,0,0,90.21,40.69h0A50.12,50.12,0,0,0,70.49,25.27a35.08,35.08,0,1,1,54.25,41.3,2.15,2.15,0,0,0,.37,3.57l8.31,4.3H102.61C101.94,74.44,101.26,74.41,100.59,74.37Z"/></g></g></svg>