<svg xmlns="http://www.w3.org/2000/svg" viewBox="0 0 247.2 178.29"><defs><style>.cls-1{fill:#005ca9;}.cls-2{fill:#2c2c2c;}</style></defs><title>Fichier 30</title><g id="Calque_2" data-name="Calque 2"><g id="Calque_1-2" data-name="Calque 1"><path class="cls-1" d="M229.93,177.32H159.57l-1-1.4-30.18-53-30.9,53.56-.81,1.8H28L128.31,46.15Z"/><path class="cls-2" d="M194.21,122.27h32.55v7.91H200.34l24.93,32.19L219,167.21,120.55,40.12l-97.19,128-6.3-4.78,25.19-33.19H0v-7.91H48.26l72.23-95.15ZM176,143.83l-26.07,26-29.33-51.5-30,52L64.21,144.44c10.94-9,51.46-43.21,52.36-57.28h7.9a10.27,10.27,0,0,1,0,1.11C125.31,100.73,165.89,135.52,176,143.83Zm-11.74.54C153.9,135.65,130,114.54,120.5,98.72c-9.6,16-34,37.4-44.5,46.23l12.81,12.6,31.8-55.11,31,54.49ZM65.63,169.71h7.91V161.8H65.63Zm-15.82,0h7.91V161.8H49.81Zm-15.82,0H41.9V161.8H34Zm162.43,0h7.91V161.8h-7.91Zm-15.82,0h7.91V161.8H180.6Zm-15.82,0h7.91V161.8h-7.91ZM124.05,0h-7.91V18.84h7.91ZM237.31,121.72v7.91h9.89v-7.91Z"/></g></g></svg>