<svg xmlns="http://www.w3.org/2000/svg" viewBox="0 0 183.68 190.26"><defs><style>.cls-1{fill:#005ca9;}.cls-2{fill:#2c2c2c;}</style></defs><title>Fichier 31</title><g id="Calque_2" data-name="Calque 2"><g id="Calque_1-2" data-name="Calque 1"><path class="cls-1" d="M100.48,189.83H69.73l-.44-.61L56.1,166.06,42.59,189.47l-.35.79h-30l43.84-57.75Z"/><path class="cls-2" d="M84.87,165.77H99.1v3.46H87.55l10.9,14.07-2.73,2.11-43-55.54L10.21,185.82l-2.75-2.09,11-14.5H0v-3.46H21.09l31.57-41.58Zm-8,9.42L65.5,186.56l-12.81-22.5L39.57,186.79,28.06,175.46c4.78-3.93,22.49-18.88,22.88-25h3.45c0,.15,0,.32,0,.48C54.76,156.36,72.5,171.56,76.9,175.19Zm-5.13.24c-4.51-3.81-15-13-19.11-20-4.2,7-14.86,16.34-19.45,20.2l5.6,5.51,13.9-24.08,13.56,23.81ZM28.68,186.51h3.46v-3.46H28.68Zm-6.91,0h3.45v-3.46H21.77Zm-6.92,0h3.46v-3.46H14.85Zm71,0h3.45v-3.46H85.84Zm-6.92,0h3.46v-3.46H78.92Zm-6.91,0h3.46v-3.46H72Zm-17.8-74.17H50.76v8.23h3.45Zm49.5,53.19V169H108v-3.46Z"/><path class="cls-1" d="M176.44,74.39H146.92l-.43-.58L133.83,51.57,120.86,74l-.34.76H91.72L133.8,19.36Z"/><path class="cls-2" d="M161.45,51.3H175.1v3.32H164l10.46,13.5-2.62,2L130.55,16.83,89.77,70.54l-2.64-2L97.7,54.62H80V51.3h20.25l30.3-39.92Zm-7.66,9L142.86,71.26,130.55,49.65,118,71.47l-11-10.87c4.59-3.78,21.59-18.13,22-24h3.31a3.69,3.69,0,0,1,0,.47C132.54,42.26,149.57,56.86,153.79,60.34Zm-4.92.23c-4.33-3.66-14.38-12.51-18.35-19.15-4,6.69-14.26,15.69-18.66,19.39l5.37,5.29L130.57,43l13,22.86ZM107.5,71.2h3.32V67.88H107.5Zm-6.63,0h3.32V67.88h-3.32Zm-6.64,0h3.32V67.88H94.23Zm68.15,0h3.31V67.88h-3.31Zm-6.64,0h3.32V67.88h-3.32Zm-6.64,0h3.32V67.88H149.1ZM132,0H128.7V7.9H132Zm47.52,51.07v3.32h4.15V51.07Z"/></g></g></svg>