<svg xmlns="http://www.w3.org/2000/svg" viewBox="0 0 92.11 225.4"><defs><style>.cls-1{fill:#075aa8;}.cls-2{fill:#2c2c2c;}</style></defs><title>Fichier 43</title><g id="Calque_2" data-name="Calque 2"><g id="Calque_1-2" data-name="Calque 1"><path class="cls-1" d="M25.6,140.83,22.43,158.2s-18.3-4.26-19.79-27S13.21,94.94,24,94.94l2.19,15A95.91,95.91,0,0,1,25.6,140.83Z"/><path class="cls-2" d="M83.43,39.34c-.41-2.7-2-9.88-3.43-16.4l-.62-2.82C77.16,9.82,70.89,2.92,61.71.69a23.88,23.88,0,0,0-18.56,3,20.71,20.71,0,0,0-9.24,13.75c-1.8,9.84,2.28,21.6,13.56,25a2.77,2.77,0,0,0,3.43-1.83,2.73,2.73,0,0,0-1.83-3.43c-9.88-3-10.7-13.6-9.75-18.78A15.28,15.28,0,0,1,46.14,8.34,18,18,0,0,1,55.92,5.5,19.14,19.14,0,0,1,60.41,6c9,2.18,12.35,9.48,13.58,15.22l.64,2.87c1,4.64,3,13.29,3.36,16,1.77,11.69,8,40.43,8.68,43.67a2.75,2.75,0,1,0,5.38-1.16C91.34,79.4,85.15,50.69,83.43,39.34Z"/><path class="cls-2" d="M46.62,119.29a2.79,2.79,0,0,0,3.72,1.14l28.1-14.87a2.76,2.76,0,0,0,1.43-2.88L72.55,58.2a2.77,2.77,0,0,0-1.13-1.81,2.64,2.64,0,0,0-2-.45,2.75,2.75,0,0,0-2.28,3.16l7,42.52L47.76,115.57a2.73,2.73,0,0,0-1.34,1.62A2.7,2.7,0,0,0,46.62,119.29Z"/><path class="cls-2" d="M76.9,119.11a3.21,3.21,0,0,0-3.15-2.64,3.29,3.29,0,0,0-.54,0,3.19,3.19,0,0,0-2.59,3.68l11.64,69.51-11.57.21a3.16,3.16,0,0,0-3.1,3.18v29a3.19,3.19,0,0,0,6.37,0V196.21L86.11,196a3.2,3.2,0,0,0,3.06-3.73Z"/><path class="cls-2" d="M54.43,192.86a2.7,2.7,0,0,0-2.61-2.05h-.06l-21.43.12L33,158.49a2.76,2.76,0,0,0-2.4-3,28.67,28.67,0,0,1-25-28.41c0-15.4,10.07-32,28.73-32.38,2.61,0,3-1.16,12.44-39.45a2.75,2.75,0,0,0-5.34-1.32c-3.21,13-7.21,28.68-8.9,34.59l-.22.76-.79.07C15.81,90.82,0,104.25,0,127.09a34,34,0,0,0,26.26,33.22l1,.23-2.65,32.91a2.77,2.77,0,0,0,.71,2.11,2.68,2.68,0,0,0,2,.89l22.33-.13,4.64,27A2.75,2.75,0,0,0,59.6,222Z"/></g></g></svg>