<svg xmlns="http://www.w3.org/2000/svg" viewBox="0 0 106.77 150.08"><defs><style>.cls-1{fill:#2c2c2c;}</style></defs><title>Fichier 36</title><g id="Calque_2" data-name="Calque 2"><g id="Calque_1-2" data-name="Calque 1"><path class="cls-1" d="M23.19,38.45v-10A28.47,28.47,0,0,1,51.63,0,21,21,0,0,1,72,15.76a1.87,1.87,0,0,1-3.63.94C62.57-5.69,26.94,2.76,26.94,28.44v10A1.88,1.88,0,0,1,23.19,38.45Z"/><path class="cls-1" d="M82,37.84v-15c0-7.61-7.89-13.5-16-13.2a1.88,1.88,0,0,1-.14-3.75c10.58-.36,19.94,7.38,19.94,17v15A1.88,1.88,0,0,1,82,37.84Z"/><path class="cls-1" d="M26.75,45.76C22.1,44.58,30.57,34.32,34,30.83a1.89,1.89,0,0,1,1.34-.57c9,0,24-2.34,34.11-6.7A1.88,1.88,0,0,1,70.92,27c-10.25,4.42-25.34,6.87-34.79,7C34,36.27,29.83,41.23,29,44.4A1.89,1.89,0,0,1,26.75,45.76Z"/><path class="cls-1" d="M78.17,44.44C75.39,34.37,64.41,29.2,64.3,29.14a1.87,1.87,0,0,1,1.57-3.4c.51.24,12.68,6,15.92,17.7A1.88,1.88,0,0,1,78.17,44.44Z"/><path class="cls-1" d="M51.05,133.18a1.87,1.87,0,0,1,0-3.73A1.87,1.87,0,0,1,51.05,133.18Z"/><path class="cls-1" d="M51.05,142.56a1.86,1.86,0,0,1,0-3.72A1.86,1.86,0,0,1,51.05,142.56Z"/><path class="cls-1" d="M81.58,55.35c-1.77-.35-2.53-2.93.84-5.29,1-.7,2-1.42,2.66-4.13,1-4,.41-7.28-1.49-6A1.88,1.88,0,0,1,81,39.52c-2.8-4,11.37-7.71,7.76,7.28-1,4.1-2.89,5.44-4.15,6.33-.72.5-.76.57-.79.74A1.88,1.88,0,0,1,81.58,55.35Z"/><path class="cls-1" d="M23.17,53.87c0-.17-.08-.24-.79-.74-1.26-.89-3.17-2.23-4.15-6.33C15.72,36.38,22,34.45,25.52,36.91A1.87,1.87,0,0,1,23.37,40c-1.93-1.34-2.44,2-1.5,6,1.22,5,4.28,3.64,5,7.22A1.87,1.87,0,0,1,23.17,53.87Z"/><path class="cls-1" d="M53.46,86.23c-15.68.07-27.64-14.76-30.31-32.44a1.88,1.88,0,0,1,3.72-.56c2.55,17,13.64,29.25,26.37,29.25h.47c12.74,0,23.83-12.3,26.38-29.25a1.88,1.88,0,0,1,3.71.56C81.21,71,69.54,86.29,53.46,86.23Z"/><path class="cls-1" d="M104.58,150.08H1.88A1.88,1.88,0,0,1,0,148.21V119.68c.9-14.5,9.75-27.07,21.46-32.6a1.88,1.88,0,0,1,1.6,3.4A33.38,33.38,0,0,0,8.85,103.6c-6.41,10.57-5.1,17.21-5.1,42.73H104.58a1.88,1.88,0,1,1,0,3.75Z"/><path class="cls-1" d="M103,148.21V119.86a35.88,35.88,0,0,0-5.09-16.26A32.93,32.93,0,0,0,81.49,89.53,1.88,1.88,0,0,1,82.82,86a36.64,36.64,0,0,1,18.32,15.64,39.66,39.66,0,0,1,5.63,18c0,.08,0,28.45,0,28.53A1.88,1.88,0,0,1,103,148.21Z"/><path class="cls-1" d="M40.72,145.64c0-21.45-.43-21,1.12-21.67,2.44-1.07,30.18-5.59,31.79-37.78a1.87,1.87,0,0,1,3.74.19c-.72,14.59-7,33.47-32.9,40.71v18.55A1.88,1.88,0,0,1,40.72,145.64Z"/><path class="cls-1" d="M34,30.84,45.08,19.19a1.88,1.88,0,0,1,2.72,2.59L36.68,33.44A1.88,1.88,0,0,1,34,30.84Z"/><path class="cls-1" d="M52.32,123.53C37.6,117.3,27.38,102.26,29,85.75a1.88,1.88,0,0,1,3.74.38,33,33,0,0,0-.17,3.31c0,12.76,8.71,25.36,21.18,30.63a1.88,1.88,0,0,1-1.46,3.46Z"/><path class="cls-1" d="M18.76,146.67V134.94a1.88,1.88,0,0,1,3.76,0v11.73A1.88,1.88,0,0,1,18.76,146.67Z"/><path class="cls-1" d="M47.63,51.48H41a1.9,1.9,0,0,1,0-3.79h6.64a1.9,1.9,0,1,1,0,3.79Z"/><path class="cls-1" d="M68.5,51.48H61.86a1.9,1.9,0,0,1,0-3.79H68.5a1.9,1.9,0,1,1,0,3.79Z"/><path class="cls-1" d="M45.11,71.1a1.9,1.9,0,0,1,2.29-3c4.17,3.16,8.54,3.16,12.7,0a1.9,1.9,0,0,1,2.29,3C57,75.18,50.78,75.4,45.11,71.1Z"/><path class="cls-1" d="M29.81,87.29a1.88,1.88,0,0,1,3-2.26A25.85,25.85,0,0,0,74,84.94a1.88,1.88,0,0,1,3,2.24A29.63,29.63,0,0,1,29.81,87.29Z"/></g></g></svg>