<svg xmlns="http://www.w3.org/2000/svg" viewBox="0 0 111.32 95.48"><defs><style>.cls-1{fill:#ff5e00;}.cls-2{fill:#2c2c2c;}</style></defs><title>Fichier 48</title><g id="Calque_2" data-name="Calque 2"><g id="Calque_1-2" data-name="Calque 1"><path class="cls-1" d="M75.06,59.79c.09-1.08.15-2.18.15-3.29a37.79,37.79,0,0,0-23.57-35L48.92,19.4c3.9-10,11-16,25.8-16s26.89,12.83,26.89,27.92A29.07,29.07,0,0,1,90.84,54l7.65,3.95s.94.6.72,1.45a1.4,1.4,0,0,1-1.29,1.15H78.4a29.44,29.44,0,0,1-3-.15Z"/><path class="cls-2" d="M37.45,69.58v.81c0,3.85,6.22,3.8,6.22,0v-.81C43.67,65.78,37.45,65.73,37.45,69.58Z"/><path class="cls-2" d="M50.09,48.29c-.47-4.71-4.23-8.7-10.17-8.7-6.18,0-8.27,2.9-10,5.47-1.57,3.13,3,6.08,5,3.13a5.24,5.24,0,0,1,5-2.71c2.09,0,4.18,1.62,4.18,3.71,0,2.85-1.71,4-4.61,5a2.94,2.94,0,0,0-2,3v4.08c0,4,6,3.81,6,0V58.79A10.13,10.13,0,0,0,50.09,48.29Z"/><path class="cls-2" d="M4.84,89,5,89l7.7-4A39.27,39.27,0,0,1,0,56c0-.55,0-1.09,0-1.63a1.7,1.7,0,0,1,1.75-1.61,1.68,1.68,0,0,1,1.61,1.75c0,.49,0,1,0,1.49A36,36,0,0,0,16.7,84a1.68,1.68,0,0,1-.29,2.8l-9.8,5.06L6.47,92c0,.07,0,.09.08.1H39.47a36,36,0,0,0,19.59-5.77,1.68,1.68,0,0,1,1.83,2.82,39.33,39.33,0,0,1-21.42,6.31h-33a3.49,3.49,0,0,1-3.29-2.73A2.87,2.87,0,0,1,3.07,92,3.77,3.77,0,0,1,4.84,89Z"/><path class="cls-2" d="M64.58,82a1.68,1.68,0,0,0,1.17,2.89,1.66,1.66,0,0,0,1.17-.48A39.12,39.12,0,0,0,78.54,61.66q1,.06,1.92.06h25.48A3.05,3.05,0,0,0,107.41,56l-.13-.07-5.46-2.83A30.86,30.86,0,1,0,52.13,18.6a39.53,39.53,0,0,0-51,28.15,1.68,1.68,0,0,0,3.27.78A36.11,36.11,0,0,1,68.07,34h0a36.12,36.12,0,0,1-3.49,48ZM78.87,58.31c0-.76.07-1.53.07-2.3A39.14,39.14,0,0,0,70.73,31.9h0A39.43,39.43,0,0,0,55.27,19.81,27.5,27.5,0,1,1,97.8,52.19a1.68,1.68,0,0,0,.29,2.8l6.52,3.37H80.46C79.93,58.36,79.4,58.34,78.87,58.31Z"/></g></g></svg>