<svg xmlns="http://www.w3.org/2000/svg" viewBox="0 0 202.7 275.3"><defs><style>.cls-1{fill:#ff5e00;}.cls-2{fill:#2c2c2c;}</style></defs><title>Fichier 44</title><g id="Calque_2" data-name="Calque 2"><g id="Calque_1-2" data-name="Calque 1"><path class="cls-1" d="M149.54,152.08c-2.79,2.52-5.49,5.18-8.11,7.91-21.12,22-56.41,22.64-78,1-.71-.72-1.44-1.43-2.17-2.14-25.43,10.8-41.14,42.43-42.85,67.32C42.59,245.75,74.39,252,107.9,251.77A138.68,138.68,0,0,0,196,219.7C193.26,186.26,166.88,160.13,149.54,152.08Z"/><path class="cls-2" d="M37.37,242.94l-.2-34.12c0-5,7.56-5.06,7.59,0L45,242.9C45,247.91,37.4,248,37.37,242.94Z"/><path class="cls-2" d="M157.74,242.26l-.21-34.16a3.8,3.8,0,1,1,7.59,0l.21,34.15C165.36,247.23,157.77,247.28,157.74,242.26Z"/><path class="cls-2" d="M100.76,275.3a177.49,177.49,0,0,1-77.4-17.39c-4.52-2.16-1.24-9,3.28-6.84a170,170,0,0,0,74.08,16.64,168.39,168.39,0,0,0,92.48-28.28c4.2-2.78,8.37,3.55,4.2,6.32A175.94,175.94,0,0,1,100.76,275.3Z"/><path class="cls-2" d="M101.45,258.54A158.22,158.22,0,0,1,1.1,223.37c-4.72-3.82,4.34-62.64,55-77.74l10.2-2.76c4.85-1.3,6.82,6,2,7.33l-10.11,2.73C26.37,162.4,9.93,192.45,7.44,218.72a150.4,150.4,0,0,0,187.49-1.12c-4.16-39.65-35.75-60.17-52.12-65.51l-11.94-3.64c-4.82-1.47-2.57-8.74,2.21-7.26l12,3.66c18.38,6,54,29.18,57.59,74.1a3.78,3.78,0,0,1-1.35,3.22A158.19,158.19,0,0,1,101.45,258.54Z"/><path class="cls-2" d="M141.76,72.26A97.8,97.8,0,0,1,78.07,34.92,93.64,93.64,0,0,0,68.77,46c-2.94,4.07-9.09-.37-6.16-4.44,4.54-6.3,9.77-12.15,13.66-15.26a3.75,3.75,0,0,1,2.91-.8,3.79,3.79,0,0,1,2.57,1.58A90,90,0,0,0,105,50.05a91.08,91.08,0,0,0,36.31,14.46,3.8,3.8,0,0,1,4.68,5.1l-.19.44A3.79,3.79,0,0,1,141.76,72.26Z"/><path class="cls-2" d="M84.57,79.48l-11.43.07c-5,0-5.07-7.56,0-7.59l11.43-.07a3.8,3.8,0,1,1,0,7.59Z"/><path class="cls-2" d="M125.76,79.23l-11.42.07c-5,0-5.07-7.56,0-7.59l11.43-.07a3.8,3.8,0,0,1,0,7.59Z"/><path class="cls-2" d="M115.74,113.73c4,3-.53,9.09-4.55,6.07-7-5.24-14.27-5.2-21.21.13a3.79,3.79,0,1,1-4.62-6C94.79,106.67,105.76,106.26,115.74,113.73Z"/><path class="cls-2" d="M59.83,22C40.25,42.39,24.61,95.85,51.46,146.47a3.72,3.72,0,0,1-.8,4.66A3.53,3.53,0,0,1,45.34,150C21.76,105.79,27.8,55.42,49.25,24.54A53.64,53.64,0,0,1,68.64,7.18c28.57-14.62,62.72-4.33,77.55,8,21.12,17.55,32.37,85.86,8.16,132.89-2.14,4.16-8.44.93-6.29-3.23C172.3,97.7,159.32,43.63,145.17,25,129.37,4.16,82-1,59.83,22Z"/><path class="cls-2" d="M59.82,114c-12.88-20-12.7-49.23,2.54-71.91a3.8,3.8,0,0,1,6.3,4.24C55,66.6,55.06,92.59,66.2,109.88c6.88,10.65,20.3,22.31,33.57,22.82,18-.91,47.5-25.67,39.83-63.79-1-4.91,6.45-6.42,7.44-1.5a66.83,66.83,0,0,1,1.3,14c-.42,36.14-28.87,58-48.38,58.92C89.51,140.76,71.31,131.79,59.82,114Z"/><path class="cls-2" d="M140.89,77.64c.35-15.77-8.32-29.92-8.41-30.06-2.65-4.27,3.81-8.27,6.45-4,.41.66,9.95,16.24,9.55,34.24C148.36,82.85,140.78,82.64,140.89,77.64Z"/><path class="cls-2" d="M99.08,165c-14.73.08-26.93-5.45-34.36-15.56a3.8,3.8,0,0,1,6.12-4.5c6,8.11,16,12.53,28.19,12.47,11.68-.07,23-4.55,29.2-14.47,2.68-4.24,9.1-.21,6.43,4C121.87,167.36,95.59,165,99.08,165Z"/></g></g></svg>