<svg xmlns="http://www.w3.org/2000/svg" viewBox="0 0 173.38 223.42"><defs><style>.cls-1{fill:#005ca9;}.cls-2{fill:#2c2c2c;}</style></defs><title>Fichier 32</title><g id="Calque_2" data-name="Calque 2"><g id="Calque_1-2" data-name="Calque 1"><path class="cls-1" d="M108.05,223H75l-.48-.66-14.19-24.9L45.8,222.58l-.38.84H13.16l47.13-62.09Z"/><path class="cls-2" d="M91.26,197.1h15.3v3.72H94.14l11.72,15.12-2.94,2.28L56.65,158.49,11,218.66l-3-2.25,11.84-15.59H0V197.1H22.68l33.94-44.72Zm-8.57,10.13L70.44,219.46,56.65,195.25,42.55,219.7,30.17,207.52c5.15-4.23,24.18-20.31,24.61-26.92h3.71a4.51,4.51,0,0,1,0,.52C58.89,187,78,203.33,82.69,207.23Zm-5.52.25c-4.85-4.09-16.1-14-20.54-21.45-4.52,7.5-16,17.57-20.91,21.72l6,5.93,15-25.9,14.58,25.61ZM30.84,219.39h3.72v-3.71H30.84Zm-7.43,0h3.71v-3.71H23.41Zm-7.44,0h3.72v-3.71H16Zm76.33,0H96v-3.71H92.3Zm-7.43,0h3.72v-3.71H84.87Zm-7.44,0h3.72v-3.71H77.43ZM58.3,139.64H54.58v8.85H58.3Zm53.22,57.2v3.72h4.64v-3.72Z"/><path class="cls-1" d="M167,66H140.78l-.37-.53L129.18,45.72,117.69,65.65l-.31.67H91.85l37.31-49.15Z"/><path class="cls-2" d="M153.67,45.48h12.11v2.94H156l9.27,12-2.32,1.8L126.27,14.92,90.12,62.54l-2.34-1.78,9.37-12.34H81.43V45.48H99.38l26.87-35.39Zm-6.79,8-9.7,9.67L126.27,44,115.11,63.37l-9.8-9.65c4.07-3.34,19.14-16.07,19.48-21.3h2.94a2.8,2.8,0,0,1,0,.41C128,37.46,143.14,50.41,146.88,53.5Zm-4.37.2c-3.83-3.24-12.74-11.1-16.26-17-3.57,5.93-12.65,13.91-16.55,17.19l4.77,4.69,11.82-20.5,11.54,20.27Zm-36.67,9.42h3V60.18h-3Zm-5.88,0h2.94V60.18H100Zm-5.89,0h3V60.18h-3Zm60.42,0h2.94V60.18h-2.94Zm-5.88,0h2.94V60.18h-2.94Zm-5.89,0h2.94V60.18h-2.94ZM127.57,0h-2.94V7h2.94ZM169.7,45.28v2.94h3.68V45.28Z"/></g></g></svg>