<svg xmlns="http://www.w3.org/2000/svg" viewBox="0 0 698.01 168.44"><defs><style>.cls-1{fill:#ff5e00;}.cls-2{fill:#09b6a9;}.cls-3{fill:#2c2c2c;}</style></defs><title>Fichier 27</title><g id="Calque_2" data-name="Calque 2"><g id="Calque_1-2" data-name="Calque 1"><path class="cls-1" d="M56.72,40.12l8.25-.3c3.5,6.8,9.93,6.6,13,2.85l3-3.76L98.3,47.24l1.08,54.33-8.91,10.09-19.83,1.08A13.33,13.33,0,0,1,57.31,99.4Z"/><path class="cls-2" d="M29,68.29H45.82a.59.59,0,0,1,.58.48l14.05,84.92a3.91,3.91,0,0,1-3.84,4.6H15a3.91,3.91,0,0,1-3.85-4.55l14-82.2A3.9,3.9,0,0,1,29,68.29Z"/><path class="cls-3" d="M62.68,166.16a2.28,2.28,0,0,0,4.56,0V116.91H62.68Z"/><path class="cls-3" d="M100.43,45.76l-17-8.47V34.68l4.31-8.62A2.28,2.28,0,0,0,88,25V11.38a2.28,2.28,0,0,0-.24-1C87.58,9.94,82.49,0,72.1,0S56.62,9.94,56.41,10.36a2.28,2.28,0,0,0-.24,1V25a2.28,2.28,0,0,0,.24,1l4.31,8.62v2.61l-5.67,2.83,1.51,4.34L64,40.73a2.28,2.28,0,0,0,1.26-2V34.14a2.28,2.28,0,0,0-.24-1L60.72,24.5V12c1-1.65,4.82-7.42,11.38-7.42S82.51,10.34,83.48,12V24.5l-4.31,8.62a2.28,2.28,0,0,0-.24,1v4.55a2.28,2.28,0,0,0,1.26,2l17,8.47v52.28l-8.44,8.44a2.28,2.28,0,0,0-.67,1.61v54.63a2.28,2.28,0,1,0,4.56,0V112.47L101,104a2.28,2.28,0,0,0,.67-1.61V47.8A2.29,2.29,0,0,0,100.43,45.76Z"/><path class="cls-1" d="M155.37,40.12l8.25-.3c3.5,6.8,9.93,6.6,12.95,2.85l3.05-3.76L197,47.24,198,101.57l-8.91,10.09-19.82,1.08A13.34,13.34,0,0,1,156,99.4Z"/><path class="cls-3" d="M161.34,166.16a2.28,2.28,0,1,0,4.55,0V116.91h-4.55Z"/><path class="cls-3" d="M199.08,45.76l-17-8.47V34.68l4.31-8.62a2.28,2.28,0,0,0,.24-1V11.38a2.28,2.28,0,0,0-.24-1C186.23,9.94,181.14,0,170.75,0s-15.48,9.94-15.69,10.36a2.28,2.28,0,0,0-.24,1V25a2.28,2.28,0,0,0,.24,1l4.31,8.62v2.61l-5.67,2.83,1.51,4.34,7.45-3.73a2.28,2.28,0,0,0,1.26-2V34.14a2.28,2.28,0,0,0-.24-1l-4.31-8.62V12c1-1.65,4.82-7.42,11.38-7.42s10.41,5.79,11.38,7.42V24.5l-4.31,8.62a2.28,2.28,0,0,0-.24,1v4.55a2.28,2.28,0,0,0,1.26,2l16.95,8.47v52.28l-8.44,8.44a2.28,2.28,0,0,0-.67,1.61v54.63a2.28,2.28,0,0,0,4.56,0V112.47l8.43-8.43a2.28,2.28,0,0,0,.67-1.61V47.8A2.28,2.28,0,0,0,199.08,45.76Z"/><path class="cls-3" d="M61.81,83.73l-9.11-41a2.18,2.18,0,0,0-.61-1.11L43.65,33.2V31.87h2.28a2.28,2.28,0,0,0,2.27-2.28c0-6.69,0-19.15-5.22-24.37C42.45,4.69,37.61,0,32.27,0S22.09,4.69,21.55,5.22c-5.21,5.22-5.21,18.15-5.21,24.37a2.28,2.28,0,0,0,2.27,2.28h2.28V33.2l-8.44,8.44a2.09,2.09,0,0,0-.48.76l4.16,2h0l8.63-8.64a2.26,2.26,0,0,0,.67-1.61V29.59a2.28,2.28,0,0,0-2.28-2.28H20.9c.06-5.64.51-15.51,3.87-18.87,1-1,4.55-3.89,7.5-3.89s6.41,2.81,7.49,3.89c3.39,3.39,3.83,13,3.88,18.87H41.37a2.28,2.28,0,0,0-2.27,2.28v4.55a2.29,2.29,0,0,0,.66,1.61l8.64,8.64,9,40.32a2.28,2.28,0,0,0,2.22,1.79,2.2,2.2,0,0,0,.5-.06A2.28,2.28,0,0,0,61.81,83.73Z"/><path class="cls-2" d="M125.93,68.29h16.85a.59.59,0,0,1,.58.48l14,84.92a3.9,3.9,0,0,1-3.83,4.6H112a3.91,3.91,0,0,1-3.85-4.55l14-82.2A3.9,3.9,0,0,1,125.93,68.29Z"/><path class="cls-3" d="M29.91,156.53a2.28,2.28,0,0,0-2.18-1.63H5l8.67-44.44h0L20.85,71a2.28,2.28,0,1,0-4.48-.82L0,156.77a2.36,2.36,0,0,0,0,1,3.66,3.66,0,0,0,.18.46,2,2,0,0,0,.28.41,1.53,1.53,0,0,0,.18.18,2.53,2.53,0,0,0,.6.43,2.29,2.29,0,0,0,1,.21H25.67l-.22,6.94a2.24,2.24,0,0,0,.24.81,2.28,2.28,0,0,0,2,1.23h.23a1.63,1.63,0,0,0,.45-.09,2.26,2.26,0,0,0,1.59-2.4v-9A1.84,1.84,0,0,0,29.91,156.53Z"/><path class="cls-3" d="M61.81,83.73l-9.11-41a2.18,2.18,0,0,0-.61-1.11L43.65,33.2V31.87h2.28a2.28,2.28,0,0,0,2.27-2.28c0-6.69,0-19.15-5.22-24.37C42.45,4.69,37.61,0,32.27,0S22.09,4.69,21.55,5.22c-5.21,5.22-5.21,18.15-5.21,24.37a2.28,2.28,0,0,0,2.27,2.28h2.28V33.2l-8.44,8.44a2.18,2.18,0,0,0-.61,1.11l-9.11,41a2.28,2.28,0,0,0,4.45,1l9-40.32,8.63-8.64a2.26,2.26,0,0,0,.67-1.61V29.59a2.28,2.28,0,0,0-2.28-2.28H20.9c.06-5.64.51-15.51,3.87-18.87,1-1,4.55-3.89,7.5-3.89s6.41,2.81,7.49,3.89c3.39,3.39,3.83,13,3.88,18.87H41.37a2.28,2.28,0,0,0-2.27,2.28v4.55a2.29,2.29,0,0,0,.66,1.61l8.64,8.64,9,40.32a2.28,2.28,0,0,0,2.22,1.79,2.2,2.2,0,0,0,.5-.06A2.28,2.28,0,0,0,61.81,83.73Z"/><path class="cls-3" d="M52.72,95.19l-4.56-25a2.3,2.3,0,0,0-.6-1.18,2.35,2.35,0,0,0-1.13-.63,2.52,2.52,0,0,0-.91,0,2.35,2.35,0,0,0-1.18.61,2.39,2.39,0,0,0-.5.72A2.19,2.19,0,0,0,43.69,71l15,83.95H36.81a2.27,2.27,0,0,0-1.81.89,2.3,2.3,0,0,0-.46,1.16l0,9a2.07,2.07,0,0,0,.09.9,2.26,2.26,0,0,0,2,1.59h.22a2.27,2.27,0,0,0,.59-.08l.24-.07a2.28,2.28,0,0,0,1.24-1.2,2.21,2.21,0,0,0,.2-.69h0l-.22-6.92h22.5a2.28,2.28,0,0,0,1.38-.47,2,2,0,0,0,.37-.35,2.3,2.3,0,0,0,.52-1.36,2.07,2.07,0,0,0,0-.5Z"/><path class="cls-3" d="M126.87,156.53a2.28,2.28,0,0,0-2.18-1.63H102l8.67-44.44h0L117.81,71a2.28,2.28,0,0,0-4.48-.82L97,156.77a2.21,2.21,0,0,0,0,1,2.54,2.54,0,0,0,.17.46,2,2,0,0,0,.28.41,1.53,1.53,0,0,0,.18.18,2.53,2.53,0,0,0,.6.43,2.29,2.29,0,0,0,1,.21h23.39l-.22,6.94a2.24,2.24,0,0,0,.24.81,2.28,2.28,0,0,0,2,1.23h.23a1.79,1.79,0,0,0,.46-.09,2.27,2.27,0,0,0,1.58-2.4v-9A1.84,1.84,0,0,0,126.87,156.53Z"/><path class="cls-3" d="M106.57,73.75l6.53-29.36,8.63-8.64a2.26,2.26,0,0,0,.67-1.61V29.59a2.28,2.28,0,0,0-2.28-2.28h-2.26c.06-5.64.51-15.51,3.87-18.87,1-1,4.55-3.89,7.5-3.89s6.41,2.81,7.49,3.89c3.39,3.39,3.83,13,3.88,18.87h-2.27a2.28,2.28,0,0,0-2.27,2.28v4.55a2.29,2.29,0,0,0,.66,1.61l8.64,8.64,9,40.32a2.28,2.28,0,0,0,2.22,1.79,2.2,2.2,0,0,0,.5-.06,2.28,2.28,0,0,0,1.73-2.71l-9.11-41a2.18,2.18,0,0,0-.61-1.11l-8.44-8.44V31.87h2.28a2.28,2.28,0,0,0,2.27-2.28c0-6.69,0-19.15-5.22-24.37C139.41,4.69,134.57,0,129.23,0s-10.18,4.69-10.72,5.22c-5.21,5.22-5.21,18.15-5.21,24.37a2.28,2.28,0,0,0,2.27,2.28h2.28V33.2l-8.44,8.44a2.18,2.18,0,0,0-.61,1.11l-2.23,10"/><path class="cls-3" d="M149.68,95.19l-4.56-25a2.3,2.3,0,0,0-.6-1.18,2.35,2.35,0,0,0-1.13-.63,2.52,2.52,0,0,0-.91,0,2.35,2.35,0,0,0-1.18.61,2.39,2.39,0,0,0-.5.72,2.27,2.27,0,0,0-.15,1.32l14.95,83.95H133.77a2.27,2.27,0,0,0-1.81.89,2.2,2.2,0,0,0-.45,1.16v9a2.27,2.27,0,0,0,2,2.49h.23a2.25,2.25,0,0,0,.58-.08l.24-.07a2.28,2.28,0,0,0,1.24-1.2,2.21,2.21,0,0,0,.2-.69h0l-.22-6.92h22.5a2.33,2.33,0,0,0,1.39-.47,2.38,2.38,0,0,0,.36-.35,2.3,2.3,0,0,0,.52-1.36,2.07,2.07,0,0,0,0-.5Z"/><path class="cls-3" d="M158.77,83.73l-9.11-41a2.18,2.18,0,0,0-.61-1.11l-8.44-8.44V31.87h2.28a2.28,2.28,0,0,0,2.27-2.28c0-6.69,0-19.15-5.22-24.37C139.41,4.69,134.57,0,129.23,0s-10.18,4.69-10.72,5.22c-5.21,5.22-5.21,18.15-5.21,24.37a2.28,2.28,0,0,0,2.27,2.28h2.28V33.2l-8.44,8.44a2.09,2.09,0,0,0-.48.76l4.17,2h0l8.63-8.64a2.26,2.26,0,0,0,.67-1.61V29.59a2.28,2.28,0,0,0-2.28-2.28h-2.26c.06-5.64.51-15.51,3.87-18.87,1-1,4.55-3.89,7.5-3.89s6.41,2.81,7.49,3.89c3.39,3.39,3.83,13,3.88,18.87h-2.27a2.28,2.28,0,0,0-2.27,2.28v4.55a2.29,2.29,0,0,0,.66,1.61l8.64,8.64,9,40.32a2.28,2.28,0,0,0,2.22,1.79,2.2,2.2,0,0,0,.5-.06A2.28,2.28,0,0,0,158.77,83.73Z"/><path class="cls-1" d="M254.9,40.12l8.26-.3c3.49,6.8,9.92,6.6,12.95,2.85l3-3.76,17.33,8.33,1.09,54.33-8.92,10.09-19.82,1.08A13.34,13.34,0,0,1,255.49,99.4Z"/><path class="cls-3" d="M260.87,166.16a2.28,2.28,0,1,0,4.55,0V116.91h-4.55Z"/><path class="cls-3" d="M298.62,45.76l-16.95-8.47V34.68L286,26.06a2.28,2.28,0,0,0,.24-1V11.38a2.28,2.28,0,0,0-.24-1C285.77,9.94,280.68,0,270.29,0s-15.49,9.94-15.7,10.36a2.28,2.28,0,0,0-.24,1V25a2.42,2.42,0,0,0,.24,1l4.31,8.62v2.61l-5.67,2.83,1.51,4.34,7.46-3.73a2.28,2.28,0,0,0,1.26-2V34.14a2.42,2.42,0,0,0-.24-1L258.9,24.5V12c1-1.65,4.83-7.42,11.39-7.42s10.4,5.79,11.38,7.42V24.5l-4.32,8.62a2.42,2.42,0,0,0-.24,1v4.55a2.28,2.28,0,0,0,1.26,2l16.95,8.47v52.28l-8.44,8.44a2.31,2.31,0,0,0-.66,1.61v54.63a2.28,2.28,0,1,0,4.55,0V112.47l8.44-8.43a2.32,2.32,0,0,0,.67-1.61V47.8A2.29,2.29,0,0,0,298.62,45.76Z"/><path class="cls-2" d="M225.46,68.29h16.85a.58.58,0,0,1,.58.48l14.05,84.92a3.89,3.89,0,0,1-3.83,4.6H211.49a3.9,3.9,0,0,1-3.84-4.55l14-82.2A3.89,3.89,0,0,1,225.46,68.29Z"/><path class="cls-3" d="M226.4,156.53a2.27,2.27,0,0,0-2.18-1.63H201.5l8.67-44.44h0L217.34,71a2.27,2.27,0,1,0-4.47-.82l-16.34,86.62a2.36,2.36,0,0,0,0,1,2,2,0,0,0,.18.46,1.62,1.62,0,0,0,.27.41l.18.18a2.4,2.4,0,0,0,.61.43,2.21,2.21,0,0,0,1,.21h23.39l-.21,6.94a2.06,2.06,0,0,0,.24.81,2.27,2.27,0,0,0,2,1.23h.23a1.8,1.8,0,0,0,.45-.09,2.28,2.28,0,0,0,1.59-2.4v-9A2.59,2.59,0,0,0,226.4,156.53Z"/><path class="cls-3" d="M206.11,73.75l6.52-29.36,8.64-8.64a2.29,2.29,0,0,0,.66-1.61V29.59a2.28,2.28,0,0,0-2.27-2.28h-2.27c.06-5.64.51-15.51,3.88-18.87,1-1,4.55-3.89,7.49-3.89s6.41,2.81,7.5,3.89c3.39,3.39,3.82,13,3.88,18.87h-2.27a2.28,2.28,0,0,0-2.28,2.28v4.55a2.26,2.26,0,0,0,.67,1.61l8.63,8.64,9,40.32a2.28,2.28,0,0,0,2.22,1.79,2.14,2.14,0,0,0,.5-.06,2.27,2.27,0,0,0,1.73-2.71l-9.1-41a2.27,2.27,0,0,0-.62-1.11l-8.44-8.44V31.87h2.28a2.29,2.29,0,0,0,2.28-2.28c0-6.69,0-19.15-5.22-24.37C238.94,4.69,234.11,0,228.76,0s-10.18,4.69-10.71,5.22c-5.22,5.22-5.22,18.15-5.22,24.37a2.28,2.28,0,0,0,2.28,2.28h2.27V33.2l-8.44,8.44a2.34,2.34,0,0,0-.61,1.11l-2.22,10"/><path class="cls-3" d="M249.21,95.19l-4.55-25a2.27,2.27,0,0,0-1.74-1.81,2.52,2.52,0,0,0-.91,0,2.22,2.22,0,0,0-.84.34,2.88,2.88,0,0,0-.34.27,2.19,2.19,0,0,0-.49.72,2.27,2.27,0,0,0-.16,1.32l14.95,83.95H233.3a2.25,2.25,0,0,0-1.8.89A2.21,2.21,0,0,0,231,157v9a2.23,2.23,0,0,0,.09.9,2.3,2.3,0,0,0,.72,1.08,2.23,2.23,0,0,0,1.23.51h.23a2.2,2.2,0,0,0,.58-.08l.24-.07a2.3,2.3,0,0,0,1.25-1.2,2.2,2.2,0,0,0,.19-.69h0l-.22-6.92h22.5a2.28,2.28,0,0,0,1.39-.47,2.38,2.38,0,0,0,.36-.35,2.31,2.31,0,0,0,.53-1.36,2.74,2.74,0,0,0,0-.5Z"/><path class="cls-3" d="M258.3,83.73l-9.1-41a2.27,2.27,0,0,0-.62-1.11l-8.44-8.44V31.87h2.28a2.29,2.29,0,0,0,2.28-2.28c0-6.69,0-19.15-5.22-24.37C238.94,4.69,234.11,0,228.76,0s-10.18,4.69-10.71,5.22c-5.22,5.22-5.22,18.15-5.22,24.37a2.28,2.28,0,0,0,2.28,2.28h2.27V33.2l-8.44,8.44a2.39,2.39,0,0,0-.48.76l4.17,2h0l8.64-8.64a2.29,2.29,0,0,0,.66-1.61V29.59a2.28,2.28,0,0,0-2.27-2.28h-2.27c.06-5.64.51-15.51,3.88-18.87,1-1,4.55-3.89,7.49-3.89s6.41,2.81,7.5,3.89c3.39,3.39,3.82,13,3.88,18.87h-2.27a2.28,2.28,0,0,0-2.28,2.28v4.55a2.26,2.26,0,0,0,.67,1.61l8.63,8.64,9,40.32a2.28,2.28,0,0,0,2.22,1.79,2.14,2.14,0,0,0,.5-.06A2.27,2.27,0,0,0,258.3,83.73Z"/><path class="cls-1" d="M354.43,40.12l8.26-.3c3.49,6.8,9.93,6.6,12.95,2.85l3-3.76L396,47.24l1.08,54.33-8.92,10.09-19.82,1.08A13.33,13.33,0,0,1,355,99.4Z"/><path class="cls-3" d="M360.4,166.16a2.28,2.28,0,1,0,4.56,0V116.91H360.4Z"/><path class="cls-3" d="M398.15,45.76,381.2,37.29V34.68l4.31-8.62a2.28,2.28,0,0,0,.24-1V11.38a2.28,2.28,0,0,0-.24-1C385.3,9.94,380.21,0,369.82,0s-15.48,9.94-15.69,10.36a2.28,2.28,0,0,0-.24,1V25a2.28,2.28,0,0,0,.24,1l4.31,8.62v2.61l-5.67,2.83,1.51,4.34,7.45-3.73a2.28,2.28,0,0,0,1.26-2V34.14a2.28,2.28,0,0,0-.24-1l-4.31-8.62V12c1-1.65,4.82-7.42,11.38-7.42S380.23,10.34,381.2,12V24.5l-4.31,8.62a2.28,2.28,0,0,0-.24,1v4.55a2.28,2.28,0,0,0,1.26,2l16.95,8.47v52.28l-8.44,8.44a2.28,2.28,0,0,0-.67,1.61v54.63a2.28,2.28,0,1,0,4.55,0V112.47l8.44-8.43a2.28,2.28,0,0,0,.67-1.61V47.8A2.29,2.29,0,0,0,398.15,45.76Z"/><path class="cls-2" d="M325,68.29h16.86a.6.6,0,0,1,.58.48l14.05,84.92a3.91,3.91,0,0,1-3.84,4.6H311a3.9,3.9,0,0,1-3.84-4.55l14-82.2A3.89,3.89,0,0,1,325,68.29Z"/><path class="cls-3" d="M325.94,156.53a2.28,2.28,0,0,0-2.18-1.63H301l8.67-44.44h0L316.88,71a2.28,2.28,0,1,0-4.48-.82l-16.34,86.62a2.36,2.36,0,0,0,0,1,2.19,2.19,0,0,0,.46.87,1.53,1.53,0,0,0,.18.18,2.35,2.35,0,0,0,.6.43,2.28,2.28,0,0,0,1,.21h23.4l-.22,6.94a2.24,2.24,0,0,0,.24.81,2.27,2.27,0,0,0,2,1.23H324a1.63,1.63,0,0,0,.45-.09,2.27,2.27,0,0,0,1.59-2.4v-9A1.84,1.84,0,0,0,325.94,156.53Z"/><path class="cls-3" d="M305.64,73.75l6.53-29.36,8.63-8.64a2.26,2.26,0,0,0,.67-1.61V29.59a2.28,2.28,0,0,0-2.28-2.28h-2.27c.06-5.64.51-15.51,3.88-18.87,1-1,4.55-3.89,7.5-3.89s6.41,2.81,7.49,3.89c3.39,3.39,3.83,13,3.88,18.87H337.4a2.28,2.28,0,0,0-2.27,2.28v4.55a2.29,2.29,0,0,0,.66,1.61l8.63,8.64,9,40.32a2.26,2.26,0,0,0,2.22,1.79,2.05,2.05,0,0,0,.49-.06,2.27,2.27,0,0,0,1.73-2.71l-9.1-41a2.34,2.34,0,0,0-.61-1.11l-8.44-8.44V31.87H342a2.28,2.28,0,0,0,2.28-2.28c0-6.69,0-19.15-5.22-24.37C338.48,4.69,333.64,0,328.3,0s-10.18,4.69-10.72,5.22c-5.22,5.22-5.22,18.15-5.22,24.37a2.28,2.28,0,0,0,2.28,2.28h2.28V33.2l-8.44,8.44a2.27,2.27,0,0,0-.62,1.11l-2.22,10"/><path class="cls-3" d="M348.75,95.19l-4.56-25a2.24,2.24,0,0,0-.61-1.18,2.26,2.26,0,0,0-1.13-.63,2.47,2.47,0,0,0-.9,0,2.16,2.16,0,0,0-.84.34,2.33,2.33,0,0,0-.35.27,2.55,2.55,0,0,0-.49.72,2.27,2.27,0,0,0-.16,1.32l15,83.95H332.84a2.27,2.27,0,0,0-1.81.89,2.3,2.3,0,0,0-.46,1.16v9a2.42,2.42,0,0,0,.09.9,2.32,2.32,0,0,0,.73,1.08,2.17,2.17,0,0,0,1.22.51h.23a2.27,2.27,0,0,0,.59-.08l.24-.07a2.28,2.28,0,0,0,1.24-1.2,2,2,0,0,0,.19-.69h0l-.21-6.92h22.49a2.28,2.28,0,0,0,1.39-.47,2,2,0,0,0,.36-.35,2.24,2.24,0,0,0,.53-1.36,2.07,2.07,0,0,0,0-.5Z"/><path class="cls-3" d="M357.83,83.73l-9.1-41a2.34,2.34,0,0,0-.61-1.11l-8.44-8.44V31.87H342a2.28,2.28,0,0,0,2.28-2.28c0-6.69,0-19.15-5.22-24.37C338.48,4.69,333.64,0,328.3,0s-10.18,4.69-10.72,5.22c-5.22,5.22-5.22,18.15-5.22,24.37a2.28,2.28,0,0,0,2.28,2.28h2.28V33.2l-8.44,8.44a2.09,2.09,0,0,0-.48.76l4.16,2h0l8.63-8.64a2.26,2.26,0,0,0,.67-1.61V29.59a2.28,2.28,0,0,0-2.28-2.28h-2.27c.06-5.64.51-15.51,3.88-18.87,1-1,4.55-3.89,7.5-3.89s6.41,2.81,7.49,3.89c3.39,3.39,3.83,13,3.88,18.87H337.4a2.28,2.28,0,0,0-2.27,2.28v4.55a2.29,2.29,0,0,0,.66,1.61l8.63,8.64,9,40.32a2.26,2.26,0,0,0,2.22,1.79,2.05,2.05,0,0,0,.49-.06A2.27,2.27,0,0,0,357.83,83.73Z"/><path class="cls-1" d="M454,40.12l8.25-.3c3.5,6.8,9.93,6.6,13,2.85l3-3.76,17.33,8.33,1.08,54.33-8.91,10.09-19.82,1.08A13.34,13.34,0,0,1,454.56,99.4Z"/><path class="cls-3" d="M459.94,166.16a2.28,2.28,0,1,0,4.55,0V116.91h-4.55Z"/><path class="cls-3" d="M497.68,45.76l-16.95-8.47V34.68l4.32-8.62a2.42,2.42,0,0,0,.24-1V11.38a2.42,2.42,0,0,0-.24-1C484.83,9.94,479.74,0,469.35,0s-15.48,9.94-15.69,10.36a2.28,2.28,0,0,0-.24,1V25a2.28,2.28,0,0,0,.24,1L458,34.68v2.61l-5.67,2.83,1.51,4.34,7.46-3.73a2.27,2.27,0,0,0,1.25-2V34.14a2.28,2.28,0,0,0-.24-1L458,24.5V12c1-1.65,4.82-7.42,11.38-7.42s10.41,5.79,11.38,7.42V24.5l-4.31,8.62a2.28,2.28,0,0,0-.24,1v4.55a2.28,2.28,0,0,0,1.26,2l16.95,8.47v52.28L486,109.92a2.31,2.31,0,0,0-.66,1.61v54.63a2.28,2.28,0,1,0,4.55,0V112.47l8.44-8.43a2.31,2.31,0,0,0,.66-1.61V47.8A2.28,2.28,0,0,0,497.68,45.76Z"/><path class="cls-2" d="M424.53,68.29h16.85a.58.58,0,0,1,.58.48L456,153.69a3.9,3.9,0,0,1-3.83,4.6H410.56a3.91,3.91,0,0,1-3.85-4.55l14-82.2A3.9,3.9,0,0,1,424.53,68.29Z"/><path class="cls-3" d="M425.47,156.53a2.28,2.28,0,0,0-2.18-1.63H400.57l8.66-44.44h0L416.41,71a2.28,2.28,0,1,0-4.48-.82L395.6,156.77a2.21,2.21,0,0,0,0,1,2.54,2.54,0,0,0,.17.46,2,2,0,0,0,.28.41,1.53,1.53,0,0,0,.18.18,2.53,2.53,0,0,0,.6.43,2.29,2.29,0,0,0,1,.21h23.39l-.22,6.94a2.45,2.45,0,0,0,.24.81,2.28,2.28,0,0,0,2,1.23h.23a1.79,1.79,0,0,0,.46-.09,2.27,2.27,0,0,0,1.58-2.4v-9A1.84,1.84,0,0,0,425.47,156.53Z"/><path class="cls-3" d="M405.17,73.75l6.53-29.36,8.63-8.64a2.26,2.26,0,0,0,.67-1.61V29.59a2.28,2.28,0,0,0-2.28-2.28h-2.26c.06-5.64.51-15.51,3.87-18.87,1-1,4.55-3.89,7.5-3.89s6.41,2.81,7.5,3.89c3.39,3.39,3.82,13,3.87,18.87h-2.27a2.28,2.28,0,0,0-2.27,2.28v4.55a2.26,2.26,0,0,0,.67,1.61L444,44.39l9,40.32a2.28,2.28,0,0,0,2.22,1.79,2.14,2.14,0,0,0,.5-.06,2.27,2.27,0,0,0,1.73-2.71l-9.11-41a2.18,2.18,0,0,0-.61-1.11l-8.44-8.44V31.87h2.28a2.28,2.28,0,0,0,2.27-2.28c0-6.69,0-19.15-5.22-24.37C438,4.69,433.17,0,427.83,0s-10.18,4.69-10.71,5.22c-5.22,5.22-5.22,18.15-5.22,24.37a2.28,2.28,0,0,0,2.27,2.28h2.28V33.2L408,41.64a2.26,2.26,0,0,0-.61,1.11l-2.23,10"/><path class="cls-3" d="M448.28,95.19l-4.55-25a2.39,2.39,0,0,0-.61-1.18,2.35,2.35,0,0,0-1.13-.63,2.52,2.52,0,0,0-.91,0,2.35,2.35,0,0,0-1.18.61,2.39,2.39,0,0,0-.5.72,2.27,2.27,0,0,0-.15,1.32l14.95,83.95H432.37a2.24,2.24,0,0,0-1.8.89,2.13,2.13,0,0,0-.46,1.16v9a2.27,2.27,0,0,0,2,2.49h.23a2.25,2.25,0,0,0,.58-.08l.24-.07a2.28,2.28,0,0,0,1.24-1.2,2.21,2.21,0,0,0,.2-.69h0l-.22-6.92h22.5a2.31,2.31,0,0,0,1.39-.47,2.38,2.38,0,0,0,.36-.35,2.3,2.3,0,0,0,.52-1.36,2.07,2.07,0,0,0,0-.5Z"/><path class="cls-3" d="M457.37,83.73l-9.11-41a2.18,2.18,0,0,0-.61-1.11l-8.44-8.44V31.87h2.28a2.28,2.28,0,0,0,2.27-2.28c0-6.69,0-19.15-5.22-24.37C438,4.69,433.17,0,427.83,0s-10.18,4.69-10.71,5.22c-5.22,5.22-5.22,18.15-5.22,24.37a2.28,2.28,0,0,0,2.27,2.28h2.28V33.2L408,41.64a2.39,2.39,0,0,0-.48.76l4.17,2h0l8.63-8.64a2.26,2.26,0,0,0,.67-1.61V29.59a2.28,2.28,0,0,0-2.28-2.28h-2.26c.06-5.64.51-15.51,3.87-18.87,1-1,4.55-3.89,7.5-3.89s6.41,2.81,7.5,3.89c3.39,3.39,3.82,13,3.87,18.87h-2.27a2.28,2.28,0,0,0-2.27,2.28v4.55a2.26,2.26,0,0,0,.67,1.61L444,44.39l9,40.32a2.28,2.28,0,0,0,2.22,1.79,2.14,2.14,0,0,0,.5-.06A2.27,2.27,0,0,0,457.37,83.73Z"/><path class="cls-1" d="M553.5,40.12l8.26-.3c3.49,6.8,9.92,6.6,13,2.85l3-3.76,17.34,8.33,1.08,54.33-8.92,10.09-19.82,1.08A13.34,13.34,0,0,1,554.09,99.4Z"/><path class="cls-3" d="M559.47,166.16a2.28,2.28,0,1,0,4.55,0V116.91h-4.55Z"/><path class="cls-3" d="M597.22,45.76l-17-8.47V34.68l4.31-8.62a2.28,2.28,0,0,0,.24-1V11.38a2.28,2.28,0,0,0-.24-1C584.37,9.94,579.28,0,568.89,0s-15.49,9.94-15.7,10.36a2.42,2.42,0,0,0-.24,1V25a2.42,2.42,0,0,0,.24,1l4.32,8.62v2.61l-5.68,2.83,1.51,4.34,7.46-3.73a2.28,2.28,0,0,0,1.26-2V34.14a2.42,2.42,0,0,0-.24-1l-4.31-8.62V12c1-1.65,4.82-7.42,11.38-7.42s10.4,5.79,11.38,7.42V24.5L576,33.12a2.29,2.29,0,0,0-.25,1v4.55a2.28,2.28,0,0,0,1.26,2l16.95,8.47v52.28l-8.43,8.44a2.28,2.28,0,0,0-.67,1.61v54.63a2.28,2.28,0,1,0,4.55,0V112.47l8.44-8.43a2.28,2.28,0,0,0,.67-1.61V47.8A2.29,2.29,0,0,0,597.22,45.76Z"/><path class="cls-2" d="M524.06,68.29h16.86a.58.58,0,0,1,.57.48l14.06,84.92a3.91,3.91,0,0,1-3.84,4.6H510.09a3.9,3.9,0,0,1-3.84-4.55l14-82.2A3.89,3.89,0,0,1,524.06,68.29Z"/><path class="cls-3" d="M525,156.53a2.29,2.29,0,0,0-2.19-1.63H500.1l8.67-44.44h0L516,71a2.28,2.28,0,0,0-4.48-.82l-16.34,86.62a2.36,2.36,0,0,0,0,1,2,2,0,0,0,.18.46,1.94,1.94,0,0,0,.27.41l.18.18a2.4,2.4,0,0,0,.61.43,2.21,2.21,0,0,0,1,.21h23.39l-.21,6.94a2.24,2.24,0,0,0,.24.81,2.27,2.27,0,0,0,2,1.23H523a1.71,1.71,0,0,0,.45-.09,2.27,2.27,0,0,0,1.59-2.4v-9A2.61,2.61,0,0,0,525,156.53Z"/><path class="cls-3" d="M504.71,73.75l6.52-29.36,8.64-8.64a2.29,2.29,0,0,0,.66-1.61V29.59a2.28,2.28,0,0,0-2.27-2.28H516c.06-5.64.51-15.51,3.88-18.87,1-1,4.55-3.89,7.49-3.89s6.41,2.81,7.5,3.89c3.39,3.39,3.82,13,3.88,18.87h-2.27a2.28,2.28,0,0,0-2.28,2.28v4.55a2.26,2.26,0,0,0,.67,1.61l8.63,8.64,9,40.32a2.28,2.28,0,0,0,2.23,1.79,2.05,2.05,0,0,0,.49-.06,2.27,2.27,0,0,0,1.73-2.71l-9.1-41a2.27,2.27,0,0,0-.62-1.11l-8.44-8.44V31.87H541a2.28,2.28,0,0,0,2.28-2.28c0-6.69,0-19.15-5.22-24.37C537.54,4.69,532.71,0,527.36,0s-10.18,4.69-10.71,5.22c-5.22,5.22-5.22,18.15-5.22,24.37a2.28,2.28,0,0,0,2.28,2.28H516V33.2l-8.43,8.44a2.27,2.27,0,0,0-.62,1.11l-2.22,10"/><path class="cls-3" d="M547.81,95.19l-4.55-25a2.27,2.27,0,0,0-1.74-1.81,2.52,2.52,0,0,0-.91,0,2.22,2.22,0,0,0-.84.34,2.88,2.88,0,0,0-.34.27,2.19,2.19,0,0,0-.49.72,2.27,2.27,0,0,0-.16,1.32l15,83.95H531.91a2.25,2.25,0,0,0-1.81.89,2.21,2.21,0,0,0-.46,1.16v9a2.23,2.23,0,0,0,.09.9,2.3,2.3,0,0,0,.72,1.08,2.23,2.23,0,0,0,1.23.51h.23a2.33,2.33,0,0,0,.59-.08l.24-.07a2.31,2.31,0,0,0,1.24-1.2,2,2,0,0,0,.19-.69h0l-.22-6.92h22.5a2.28,2.28,0,0,0,1.39-.47,2.38,2.38,0,0,0,.36-.35,2.31,2.31,0,0,0,.53-1.36,2.74,2.74,0,0,0,0-.5Z"/><path class="cls-3" d="M556.9,83.73l-9.1-41a2.27,2.27,0,0,0-.62-1.11l-8.44-8.44V31.87H541a2.28,2.28,0,0,0,2.28-2.28c0-6.69,0-19.15-5.22-24.37C537.54,4.69,532.71,0,527.36,0s-10.18,4.69-10.71,5.22c-5.22,5.22-5.22,18.15-5.22,24.37a2.28,2.28,0,0,0,2.28,2.28H516V33.2l-8.43,8.44a2.26,2.26,0,0,0-.49.76l4.17,2h0l8.64-8.64a2.29,2.29,0,0,0,.66-1.61V29.59a2.28,2.28,0,0,0-2.27-2.28H516c.06-5.64.51-15.51,3.88-18.87,1-1,4.55-3.89,7.49-3.89s6.41,2.81,7.5,3.89c3.39,3.39,3.82,13,3.88,18.87h-2.27a2.28,2.28,0,0,0-2.28,2.28v4.55a2.26,2.26,0,0,0,.67,1.61l8.63,8.64,9,40.32a2.28,2.28,0,0,0,2.23,1.79,2.05,2.05,0,0,0,.49-.06A2.27,2.27,0,0,0,556.9,83.73Z"/><path class="cls-1" d="M653,40.12l8.25-.3c3.5,6.8,9.93,6.6,13,2.85l3-3.76,17.33,8.33,1.08,54.33-8.91,10.09L667,112.74A13.33,13.33,0,0,1,653.63,99.4Z"/><path class="cls-3" d="M659,166.16a2.28,2.28,0,1,0,4.56,0V116.91H659Z"/><path class="cls-3" d="M696.75,45.76l-17-8.47V34.68l4.31-8.62a2.28,2.28,0,0,0,.24-1V11.38a2.28,2.28,0,0,0-.24-1C683.9,9.94,678.81,0,668.42,0s-15.48,9.94-15.69,10.36a2.28,2.28,0,0,0-.24,1V25a2.28,2.28,0,0,0,.24,1L657,34.68v2.61l-5.67,2.83,1.51,4.34,7.45-3.73a2.28,2.28,0,0,0,1.26-2V34.14a2.28,2.28,0,0,0-.24-1L657,24.5V12c1-1.65,4.82-7.42,11.38-7.42S678.83,10.34,679.8,12V24.5l-4.31,8.62a2.28,2.28,0,0,0-.24,1v4.55a2.28,2.28,0,0,0,1.26,2l17,8.47v52.28L685,109.92a2.28,2.28,0,0,0-.67,1.61v54.63a2.28,2.28,0,1,0,4.56,0V112.47l8.43-8.43a2.28,2.28,0,0,0,.67-1.61V47.8A2.29,2.29,0,0,0,696.75,45.76Z"/><path class="cls-2" d="M623.59,68.29h16.86a.59.59,0,0,1,.58.48l14.05,84.92a3.91,3.91,0,0,1-3.84,4.6H609.63a3.91,3.91,0,0,1-3.85-4.55l14-82.2A3.9,3.9,0,0,1,623.59,68.29Z"/><path class="cls-3" d="M624.54,156.53a2.28,2.28,0,0,0-2.18-1.63H599.63l8.67-44.44h0L615.48,71a2.28,2.28,0,1,0-4.48-.82l-16.33,86.62a2.36,2.36,0,0,0,0,1,3.66,3.66,0,0,0,.18.46,2,2,0,0,0,.28.41,1.53,1.53,0,0,0,.18.18,2.53,2.53,0,0,0,.6.43,2.29,2.29,0,0,0,1,.21H620.3l-.22,6.94a2.24,2.24,0,0,0,.24.81,2.28,2.28,0,0,0,2,1.23h.23a1.63,1.63,0,0,0,.45-.09,2.26,2.26,0,0,0,1.59-2.4v-9A1.84,1.84,0,0,0,624.54,156.53Z"/><path class="cls-3" d="M604.24,73.75l6.53-29.36,8.63-8.64a2.26,2.26,0,0,0,.67-1.61V29.59a2.28,2.28,0,0,0-2.28-2.28h-2.27c.06-5.64.51-15.51,3.88-18.87,1-1,4.55-3.89,7.5-3.89s6.41,2.81,7.49,3.89c3.39,3.39,3.83,13,3.88,18.87H636a2.28,2.28,0,0,0-2.27,2.28v4.55a2.29,2.29,0,0,0,.66,1.61L643,44.39l9,40.32a2.26,2.26,0,0,0,2.22,1.79,2.2,2.2,0,0,0,.5-.06,2.27,2.27,0,0,0,1.72-2.71l-9.1-41a2.26,2.26,0,0,0-.61-1.11l-8.44-8.44V31.87h2.27a2.28,2.28,0,0,0,2.28-2.28c0-6.69,0-19.15-5.22-24.37C637.08,4.69,632.24,0,626.9,0s-10.18,4.69-10.72,5.22C611,10.44,611,23.37,611,29.59a2.28,2.28,0,0,0,2.28,2.28h2.28V33.2l-8.44,8.44a2.18,2.18,0,0,0-.61,1.11l-2.23,10"/><path class="cls-3" d="M647.35,95.19l-4.56-25a2.3,2.3,0,0,0-.6-1.18,2.34,2.34,0,0,0-1.14-.63,2.46,2.46,0,0,0-.9,0,2.22,2.22,0,0,0-.84.34,1.84,1.84,0,0,0-.34.27,2.39,2.39,0,0,0-.5.72,2.19,2.19,0,0,0-.15,1.32l14.95,83.95H631.44a2.27,2.27,0,0,0-1.81.89,2.3,2.3,0,0,0-.46,1.16v9a2.33,2.33,0,0,0,.82,2,2.2,2.2,0,0,0,1.22.51h.23a2.27,2.27,0,0,0,.59-.08l.24-.07a2.28,2.28,0,0,0,1.24-1.2,2.21,2.21,0,0,0,.2-.69h0l-.22-6.92H656a2.28,2.28,0,0,0,1.38-.47,1.71,1.71,0,0,0,.36-.35,2.24,2.24,0,0,0,.53-1.36,2.07,2.07,0,0,0,0-.5Z"/><path class="cls-3" d="M656.43,83.73l-9.1-41a2.26,2.26,0,0,0-.61-1.11l-8.44-8.44V31.87h2.27a2.28,2.28,0,0,0,2.28-2.28c0-6.69,0-19.15-5.22-24.37C637.08,4.69,632.24,0,626.9,0s-10.18,4.69-10.72,5.22C611,10.44,611,23.37,611,29.59a2.28,2.28,0,0,0,2.28,2.28h2.28V33.2l-8.44,8.44a2.09,2.09,0,0,0-.48.76l4.16,2h0l8.63-8.64a2.26,2.26,0,0,0,.67-1.61V29.59a2.28,2.28,0,0,0-2.28-2.28h-2.27c.06-5.64.51-15.51,3.88-18.87,1-1,4.55-3.89,7.5-3.89s6.41,2.81,7.49,3.89c3.39,3.39,3.83,13,3.88,18.87H636a2.28,2.28,0,0,0-2.27,2.28v4.55a2.29,2.29,0,0,0,.66,1.61L643,44.39l9,40.32a2.26,2.26,0,0,0,2.22,1.79,2.2,2.2,0,0,0,.5-.06A2.27,2.27,0,0,0,656.43,83.73Z"/></g></g></svg>