<svg xmlns="http://www.w3.org/2000/svg" viewBox="0 0 236.95 262.24"><defs><style>.cls-1{fill:#2c2c2c;}</style></defs><title>Fichier 51</title><g id="Calque_2" data-name="Calque 2"><g id="Calque_1-2" data-name="Calque 1"><path class="cls-1" d="M232.06,252.41l-13-.06.14-27.87a4.92,4.92,0,0,0-9.83,0l-.14,27.87-19-.1.38-75.36a4.94,4.94,0,0,0-.18-1.28c0-.08,0-.16,0-.25l.11-20.74a4.91,4.91,0,0,0-4.89-4.94L57.43,149a4.9,4.9,0,0,0-4.94,4.89l-.11,20.75a5.1,5.1,0,0,0,.26,1.52,4.59,4.59,0,0,0-.1,1l-.4,78.39A4.9,4.9,0,0,0,57,260.45h.07a4.87,4.87,0,0,0,2.83.93l172.08.87a4.92,4.92,0,1,0,.05-9.83ZM62.35,179.58l13.58.07-.37,72L62,251.55Zm23.41.12,30.68.15-.37,72-30.68-.15Zm40.51.2,31,.16-.37,72-31-.16Zm40.84.21,13.57.07-.36,72-13.58-.07ZM62.29,158.83l118.33.6-.05,10.92-118.33-.6Z"/><path class="cls-1" d="M54.85.26,14.23.05A4.91,4.91,0,0,0,9.29,4.94L9.18,26.07A4.91,4.91,0,0,0,14.07,31l10.16,0L23.11,251.35l-18.17-.09a4.92,4.92,0,0,0-.05,9.83l33.42.17a4.92,4.92,0,0,0,0-9.83l-5.42,0L34.05,32.22l176.26.89-.79,155.94a4.92,4.92,0,1,0,9.83,0l.8-157,10.15,0a4.91,4.91,0,0,0,4.94-4.89l.11-21.13a4.91,4.91,0,0,0-4.89-4.94L189.84.94M180,.58,64.68,0M19.09,9.9,225.5,11l-.06,11.3L19,21.21Z"/><path class="cls-1" d="M65.59,90.21a4.91,4.91,0,0,0-4.94,4.89l0,7.21a4.93,4.93,0,0,0,4.89,4.94l36,.18a4.91,4.91,0,0,0,4.94-4.89l.18-36a4.91,4.91,0,0,0-4.89-4.94l-36-.18a4.92,4.92,0,0,0-4.94,4.89l0,7.21a4.92,4.92,0,0,0,9.83,0v-2.3l26.21.14-.13,26.21-26.21-.14V95.15A4.93,4.93,0,0,0,65.59,90.21Z"/><path class="cls-1" d="M143.05,61.77a4.91,4.91,0,0,0-4.94,4.89l-.18,36a4.91,4.91,0,0,0,4.89,4.94l36,.18a4.9,4.9,0,0,0,4.93-4.89l.19-36A4.93,4.93,0,0,0,179.09,62ZM174,98l-26.21-.13.13-26.22,26.21.14Z"/></g></g></svg>