<svg xmlns="http://www.w3.org/2000/svg" viewBox="0 0 493.03 187.44"><defs><style>.cls-1{fill:#005ca9;}.cls-2{fill:#2c2c2c;}</style></defs><title>Fichier 34</title><g id="Calque_2" data-name="Calque 2"><g id="Calque_1-2" data-name="Calque 1"><path class="cls-1" d="M483.83,186.93h-37.5l-.54-.75L429.7,157.94l-16.47,28.54-.43,1H376.2L429.67,117Z"/><path class="cls-2" d="M464.79,157.59h17.35v4.21H468.06L481.35,179,478,181.54,425.54,113.8,373.73,182l-3.35-2.55L383.8,161.8H361.28v-4.21H387l38.5-50.72Zm-9.72,11.48-13.9,13.87-15.63-27.45-16,27.73L395.5,169.4c5.84-4.79,27.43-23,27.91-30.53h4.21a5.8,5.8,0,0,1,0,.59C428.07,146.1,449.7,164.65,455.07,169.07Zm-6.26.29c-5.5-4.64-18.26-15.89-23.3-24.33-5.12,8.51-18.13,19.94-23.72,24.64l6.83,6.72L425.56,147l16.54,29Zm-52.55,13.51h4.22v-4.21h-4.22Zm-8.43,0h4.22v-4.21h-4.22Zm-8.43,0h4.21v-4.21H379.4Zm86.57,0h4.22v-4.21H466Zm-8.43,0h4.22v-4.21h-4.22Zm-8.43,0h4.21v-4.21h-4.21ZM427.4,92.42h-4.22v10h4.22Zm60.36,64.87v4.22H493v-4.22Z"/><path class="cls-1" d="M310.7,96.86H272.26l-.56-.77L255.22,67.15,238.34,96.4l-.44,1H200.39l54.79-72.18Z"/><path class="cls-2" d="M291.18,66.79H309v4.32H294.53l13.62,17.58-3.41,2.64L251,21.91,197.86,91.85l-3.44-2.61,13.76-18.13H185.1V66.79h26.36l39.45-52Zm-10,11.77L267,92.78,251,64.64,234.56,93.05,220.17,78.9c6-4.92,28.11-23.61,28.61-31.29h4.31c0,.19,0,.4,0,.6C253.55,55,275.71,74,281.21,78.56Zm-6.41.3c-5.63-4.76-18.71-16.29-23.88-24.94-5.24,8.72-18.58,20.43-24.31,25.25l7,6.89L251,56l17,29.76ZM221,92.7h4.32V88.38H221Zm-8.64,0h4.32V88.38h-4.32Zm-8.64,0H208V88.38h-4.32Zm88.72,0h4.32V88.38h-4.32Zm-8.64,0h4.32V88.38h-4.32Zm-8.64,0h4.32V88.38h-4.32ZM252.86,0h-4.32V10.29h4.32Zm61.86,66.49v4.32h5.41V66.49Z"/><path class="cls-1" d="M99.41,176.83H69l-.44-.61-13-22.91L42.14,176.47l-.35.78H12.1l43.37-57.13Z"/><path class="cls-2" d="M84,153H98v3.42H86.61l10.78,13.91-2.7,2.1L52.12,117.51l-42,55.35L7.38,170.8l10.89-14.35H0V153H20.86l31.23-41.14Zm-7.89,9.32L64.8,173.6,52.12,151.33l-13,22.49L27.76,162.61c4.73-3.89,22.25-18.68,22.64-24.76h3.41a3.84,3.84,0,0,1,0,.48C54.18,143.71,71.72,158.76,76.07,162.35Zm-5.07.23c-4.46-3.77-14.81-12.89-18.9-19.73-4.16,6.9-14.71,16.16-19.24,20l5.54,5.45,13.74-23.82L65.56,168Zm-42.63,11h3.42v-3.42H28.37Zm-6.84,0H25v-3.42H21.53Zm-6.84,0h3.42v-3.42H14.69Zm70.23,0h3.42v-3.42H84.92Zm-6.84,0H81.5v-3.42H78.08Zm-6.84,0h3.42v-3.42H71.24ZM53.63,100.17H50.21v8.14h3.42Zm49,52.62v3.42h4.27v-3.42Z"/></g></g></svg>