<svg xmlns="http://www.w3.org/2000/svg" viewBox="0 0 341.83 293.2"><defs><style>.cls-1{fill:#ff5e00;}.cls-2{fill:#09b6a9;}.cls-3{fill:#2c2c2c;}</style></defs><title>Fichier 46</title><g id="Calque_2" data-name="Calque 2"><g id="Calque_1-2" data-name="Calque 1"><path class="cls-1" d="M111.35,183.6c-.28-3.33-.46-6.69-.46-10.1A116.05,116.05,0,0,1,183.25,66l8.37-6.4c-12-30.76-33.9-49.25-79.22-49S29.8,50,29.8,96.29A89.37,89.37,0,0,0,62.88,165.8L39.41,177.94s-2.91,1.83-2.22,4.44a4.3,4.3,0,0,0,4,3.52h59.93a89.45,89.45,0,0,0,9.16-.47Z"/><path class="cls-2" d="M211.89,213.67v2.48c0,11.82,19.12,11.68,19.12,0v-2.48C231,202,211.89,201.85,211.89,213.67Z"/><path class="cls-2" d="M250.72,148.28c-1.46-14.45-13-26.71-31.24-26.71-19,0-25.39,8.91-30.64,16.79C184,148,198,157,204.16,148c3.94-6.57,9.19-8.32,15.32-8.32,6.42,0,12.85,5,12.85,11.39,0,8.75-5.26,12.11-14.16,15.32-3.5,1.31-6.28,3.94-6.28,9.2v12.55c0,12.4,18.54,11.67,18.54,0v-7.59C245.76,174.41,252,160.4,250.72,148.28Z"/><path class="cls-3" d="M327,273.36c-.12-.08-.25-.15-.38-.22L303,260.92A120.65,120.65,0,0,0,341.83,172c0-1.67,0-3.33-.1-5a5.16,5.16,0,1,0-10.31.42q.09,2.27.09,4.56a110.45,110.45,0,0,1-40.94,86,5.15,5.15,0,0,0,.88,8.58l30.09,15.56a3,3,0,0,1,.44.43c-.09.21-.18.27-.25.3H220.62a110.42,110.42,0,0,1-60.14-17.72,5.16,5.16,0,1,0-5.61,8.67,120.75,120.75,0,0,0,65.75,19.37H322a10.73,10.73,0,0,0,10.11-8.37,8.89,8.89,0,0,0,.33-2.39C332.41,276.94,327.54,273.71,327,273.36Z"/><path class="cls-3" d="M109.75,172a109.85,109.85,0,0,1,23-67.69h0A110.91,110.91,0,0,1,328.44,146a5.16,5.16,0,0,0,10-2.41A121.36,121.36,0,0,0,181.76,57.13a94.77,94.77,0,1,0-152.58,106L12.4,171.83c-.13.07-.26.14-.38.22-3,1.92-5.61,5.81-4.47,10.1a9.48,9.48,0,0,0,9,7.39H94.77c2,0,3.93-.08,5.89-.2a120.12,120.12,0,0,0,35.67,69.75,5.16,5.16,0,1,0,7.19-7.41A110,110,0,0,1,109.75,172Zm-15,7.24H20.6l20-10.35a5.17,5.17,0,0,0,.88-8.6A84.44,84.44,0,1,1,172.11,60.84,120.88,120.88,0,0,0,124.64,98h0a120.1,120.1,0,0,0-25.21,74c0,2.38.09,4.74.23,7.09C98,179.16,96.39,179.22,94.77,179.22Z"/></g></g></svg>