<svg xmlns="http://www.w3.org/2000/svg" viewBox="0 0 308.28 433"><defs><style>.cls-1{fill:#005ca9;}.cls-2{fill:#2c2c2c;}</style></defs><title>Fichier 42</title><g id="Calque_2" data-name="Calque 2"><g id="Calque_1-2" data-name="Calque 1"><path class="cls-1" d="M180.9,44.43h-14v-14a5.6,5.6,0,0,0-5.58-5.58H151.15a5.6,5.6,0,0,0-5.58,5.58v14h-14A5.58,5.58,0,0,0,126,50V60.17a5.58,5.58,0,0,0,5.56,5.58h14v14a5.6,5.6,0,0,0,5.58,5.58h10.16a5.6,5.6,0,0,0,5.58-5.58v-14h14a5.6,5.6,0,0,0,5.58-5.58V50A5.6,5.6,0,0,0,180.9,44.43Z"/><path class="cls-2" d="M301.89,420.21H284.94V384a6.4,6.4,0,1,0-12.79,0v36.25H247.36v-98a6.19,6.19,0,0,0-.25-1.67c0-.11,0-.21,0-.32v-27a6.41,6.41,0,0,0-6.4-6.4H74a6.41,6.41,0,0,0-6.4,6.4v27a6.19,6.19,0,0,0,.35,2,6,6,0,0,0-.13,1.28v102a6.39,6.39,0,0,0,6.39,6.39h.1A6.34,6.34,0,0,0,78,433H301.89a6.4,6.4,0,0,0,0-12.79ZM80.62,326.57H98.28v93.64H80.62Zm30.45,0H151v93.64H111.07Zm52.7,0h40.35v93.64H163.77Zm53.14,0h17.66v93.64H216.91Zm-136.51-27h154v14.21H80.4Z"/><path class="cls-2" d="M49.87,420.21h-7V135H272.15V337.92a6.4,6.4,0,0,0,12.79,0V133.6h13.21a6.39,6.39,0,0,0,6.39-6.39V99.71a6.39,6.39,0,0,0-6.39-6.39H245.3V6.39A6.4,6.4,0,0,0,238.9,0H76.07a6.39,6.39,0,0,0-6.39,6.39V93.32H16.82a6.39,6.39,0,0,0-6.39,6.39v27.5a6.39,6.39,0,0,0,6.39,6.39H30V420.21H6.39a6.4,6.4,0,0,0,0,12.79H49.87a6.4,6.4,0,0,0,0-12.79ZM82.46,12.79H232.51V92.92h-150ZM23.22,106.11H291.76v14.7H23.22Z"/><path class="cls-2" d="M182.16,38.43h-8.9v-8.9a10.7,10.7,0,0,0-10.69-10.69H152.41a10.7,10.7,0,0,0-10.69,10.69v8.9h-8.91a10.71,10.71,0,0,0-10.69,10.7V59.29A10.71,10.71,0,0,0,132.81,70h8.91v8.9a10.7,10.7,0,0,0,10.69,10.69h10.16a10.7,10.7,0,0,0,10.69-10.69V70h8.9a10.7,10.7,0,0,0,10.69-10.69V49.13A10.7,10.7,0,0,0,182.16,38.43Zm.46,20.86a.48.48,0,0,1-.46.46h-14A5.12,5.12,0,0,0,163,64.87v14a.48.48,0,0,1-.46.46H152.41a.48.48,0,0,1-.46-.46v-14a5.12,5.12,0,0,0-5.12-5.12h-14a.48.48,0,0,1-.46-.46V49.13a.48.48,0,0,1,.46-.46h14A5.12,5.12,0,0,0,152,43.55v-14a.49.49,0,0,1,.46-.46h10.16a.49.49,0,0,1,.46.46v14a5.12,5.12,0,0,0,5.12,5.12h14a.48.48,0,0,1,.46.46Z"/><path class="cls-2" d="M84.24,210.28a6.4,6.4,0,0,0-6.4,6.4v9.37a6.4,6.4,0,0,0,6.4,6.4h46.89a6.4,6.4,0,0,0,6.39-6.4V179.16a6.39,6.39,0,0,0-6.39-6.39H84.24a6.39,6.39,0,0,0-6.4,6.39v9.38a6.4,6.4,0,1,0,12.79,0v-3h34.1v34.1H90.63v-3A6.4,6.4,0,0,0,84.24,210.28Z"/><path class="cls-2" d="M184.83,172.77a6.4,6.4,0,0,0-6.4,6.39v46.89a6.41,6.41,0,0,0,6.4,6.4h46.89a6.4,6.4,0,0,0,6.39-6.4V179.16a6.39,6.39,0,0,0-6.39-6.39Zm40.49,46.89h-34.1v-34.1h34.1Z"/></g></g></svg>