<svg xmlns="http://www.w3.org/2000/svg" viewBox="0 0 127.79 164.61"><defs><style>.cls-1{fill:#09b6a9;}.cls-2{fill:#2c2c2c;}.cls-3{fill:#e7e7e7;}</style></defs><title>Fichier 41</title><g id="Calque_2" data-name="Calque 2"><g id="Calque_1-2" data-name="Calque 1"><path class="cls-1" d="M93.45,97.35c-.79.07-3,2.6-5.89,6.34a29.26,29.26,0,0,1-44.74,2q-1.89-2.06-4-4.08c-16.07,6.71-26.1,26.6-27.27,42.28,15.15,12.43,35.17,16.47,56.3,16.47a87.5,87.5,0,0,0,55.64-19.88C122,119.39,104.36,102.49,93.45,97.35Z"/><path class="cls-2" d="M116.09,81.88a2.45,2.45,0,0,0,4.89,0A2.45,2.45,0,0,0,116.09,81.88Z"/><path class="cls-2" d="M23.47,154.53V133a2.39,2.39,0,0,1,4.78,0v21.51A2.39,2.39,0,0,1,23.47,154.53Z"/><path class="cls-2" d="M63.8,164.61A99.8,99.8,0,0,1,.67,142.06c-3-2.43,3-39.48,34.94-48.81l6.44-1.7a2.39,2.39,0,0,1,1.22,4.63l-6.38,1.68c-20,5.85-30.53,24.73-32.2,41.29a94.84,94.84,0,0,0,118.21,0c-2.48-25-22.31-38.07-32.62-41.5l-7.51-2.34c-3-.94-1.59-5.52,1.42-4.57l7.56,2.35c11.56,3.86,33.91,18.6,36,46.94a2.41,2.41,0,0,1-.87,2A99.77,99.77,0,0,1,63.8,164.61Z"/><path class="cls-2" d="M89.92,47.32a61.67,61.67,0,0,1-40-23.78,59.73,59.73,0,0,0-5.9,7,2.39,2.39,0,0,1-3.87-2.82,53.54,53.54,0,0,1,8.67-9.57,2.32,2.32,0,0,1,1.84-.49,2.4,2.4,0,0,1,1.62,1A56.58,56.58,0,0,0,66.82,33.18a57.61,57.61,0,0,0,22.84,9.25,2.4,2.4,0,0,1,2.93,3.23l-.12.28A2.4,2.4,0,0,1,89.92,47.32Z"/><path class="cls-2" d="M53.84,51.65h-7.2a2.39,2.39,0,0,1,0-4.78h7.2a2.39,2.39,0,0,1,0,4.78Z"/><path class="cls-2" d="M79.81,51.65h-7.2a2.39,2.39,0,0,1,0-4.78h7.2a2.39,2.39,0,1,1,0,4.78Z"/><path class="cls-2" d="M54.23,74.22c-2.52-1.91.37-5.73,2.89-3.81,4.4,3.33,9,3.33,13.37,0a2.39,2.39,0,1,1,2.9,3.81C67.41,78.75,60.49,79,54.23,74.22Z"/><path class="cls-2" d="M118.23,73.43c2.91-18,1.09-42.48-8.24-59.16a2.39,2.39,0,0,1,4.18-2.33c11.07,19.79,10.46,44.68,9.68,54.47-.1,1.19-.27,3.88-.9,7.79A2.39,2.39,0,0,1,118.23,73.43Z"/><path class="cls-2" d="M38.11,73.32C30.06,60.68,30.29,42.23,40,28a2.4,2.4,0,0,1,4,2.7c-8.68,12.73-8.75,29.12-1.79,40.06,4.29,6.74,12.71,14.14,21.07,14.52,11.35-.51,30.05-16,25.35-40.07a2.39,2.39,0,0,1,4.7-.92A41.37,41.37,0,0,1,94,53.09c-.4,22.78-18.42,36.49-30.72,37C56.73,90.31,45.28,84.58,38.11,73.32Z"/><path class="cls-2" d="M89.35,50.7c.29-9.93-5.13-18.89-5.18-19-1.66-2.7,2.43-5.19,4.08-2.5.25.42,6.21,10.28,5.89,21.62C94.05,54,89.27,53.86,89.35,50.7Z"/><path class="cls-2" d="M62.66,105.63c-9.28,0-16.95-3.54-21.59-9.94a2.39,2.39,0,1,1,3.87-2.81c3.72,5.13,10,8,17.73,8,7.36,0,14.5-2.79,18.46-9a2.4,2.4,0,0,1,4,2.58C77,107.2,60.47,105.63,62.66,105.63Z"/><circle class="cls-3" cx="31.89" cy="120.71" r="6.12"/><path class="cls-2" d="M31.89,122.57a1.86,1.86,0,0,1,0-3.72A1.86,1.86,0,0,1,31.89,122.57Z"/><path class="cls-2" d="M31.89,129.69a9,9,0,1,1,9-9A9,9,0,0,1,31.89,129.69Zm0-14.2a5.23,5.23,0,1,0,5.22,5.22A5.23,5.23,0,0,0,31.89,115.49Z"/><path class="cls-2" d="M103.43,141.28c1.8-5.17,3.72-9.25,2-16.29a9.62,9.62,0,0,0-9.4-7.43H90.81c-9.55,0-12,11.35-8.59,20.05l1.41,3.61a1.87,1.87,0,0,1-3.49,1.37L78.73,139a24.37,24.37,0,0,1-.91-15.14,13.43,13.43,0,0,1,13-10h5.27a13.39,13.39,0,0,1,13.12,10.59c1.88,7.93-.54,13.29-2.23,18.13A1.88,1.88,0,0,1,103.43,141.28Z"/><path class="cls-2" d="M85.21,151.6l-3.61-2.7a5.66,5.66,0,0,1,6.77-9.06l3.61,2.7a1.88,1.88,0,0,1,.38,2.63l-4.52,6.05A1.89,1.89,0,0,1,85.21,151.6Zm-1.36-5.71,2.1,1.58,2.28-3.05-2.1-1.58A1.9,1.9,0,0,0,83.85,145.89Z"/><path class="cls-2" d="M99.39,151.22l-4.53-6.05a1.88,1.88,0,0,1,.38-2.63c3.62-2.71,5-4.18,7.8-3.77a5.66,5.66,0,0,1,2.58,10.13L102,151.6A1.88,1.88,0,0,1,99.39,151.22Zm-.4-6.8,2.28,3.05,2.1-1.58a1.9,1.9,0,1,0-2.27-3Z"/><path class="cls-2" d="M30,113.79c-.06-.6-2.91-8.48,8.28-20.64a1.88,1.88,0,0,1,2.77,2.54c-10.08,11-7.33,17.62-7.31,17.75a1.88,1.88,0,0,1-3.74.35Z"/><path class="cls-2" d="M91.59,115.42c0-.2,2.67-8.11-5.66-20.34A1.88,1.88,0,0,1,89,93c9.19,13.49,6.36,22.36,6.28,23A1.88,1.88,0,0,1,91.59,115.42Z"/><path class="cls-2" d="M37.82,14.17C25,27.32,14.64,62,31.9,95a2.42,2.42,0,0,1-.54,3,2.3,2.3,0,0,1-3.46-.74c-15.15-28.84-11-61.55,3-81.54A34.79,34.79,0,0,1,43.6,4.55C62.23-4.85,84.38,2,94,10c13.66,11.48,20.71,55.93,4.79,86.4a2.3,2.3,0,0,1-4.08-2.13c15.94-30.53,7.72-65.72-1.41-77.89C83.08,2.82,52.3-.7,37.82,14.17Z"/></g></g></svg>