<svg xmlns="http://www.w3.org/2000/svg" viewBox="0 0 100.19 136.09"><defs><style>.cls-1{fill:#005ca9;}.cls-2{fill:#2c2c2c;}</style></defs><title>Fichier 37</title><g id="Calque_2" data-name="Calque 2"><g id="Calque_1-2" data-name="Calque 1"><path class="cls-1" d="M74.12,75.32c-13.76,12.32-23.67,30.92-23.67,30.92a104.38,104.38,0,0,0-20-27.83C17.88,83.68,10,99.27,9.1,111.56c11.87,9.75,27.57,12.92,44.13,12.92a68.58,68.58,0,0,0,43.63-15.59C95.62,92.35,82.66,79.35,74.12,75.32Z"/><path class="cls-2" d="M48.86,108.73a1.88,1.88,0,0,1-1.65-1.09c-.07-.15-7.26-15.53-18.35-25.85a1.87,1.87,0,0,1,2.56-2.74c8.62,8,14.83,18.61,17.6,23.84,3.12-5.25,10.14-16,19-23.66a1.87,1.87,0,0,1,2.43,2.85c-11.36,9.72-19.85,25.5-19.93,25.66A1.88,1.88,0,0,1,48.86,108.73Z"/><path class="cls-2" d="M4.38,121.71a1.92,1.92,0,0,0,3.83,0A1.92,1.92,0,0,0,4.38,121.71Z"/><path class="cls-2" d="M18.4,119.91V103a1.88,1.88,0,0,1,3.75,0v16.87A1.88,1.88,0,0,1,18.4,119.91Z"/><path class="cls-2" d="M77.9,119.92V103a1.88,1.88,0,1,1,3.75,0v16.88A1.88,1.88,0,0,1,77.9,119.92Z"/><path class="cls-2" d="M49.64,136.09a87.68,87.68,0,0,1-38.21-8.83,1.87,1.87,0,0,1,1.64-3.37,84.09,84.09,0,0,0,36.57,8.44,83.17,83.17,0,0,0,45.8-13.7,1.88,1.88,0,0,1,2.06,3.14A87,87,0,0,1,49.64,136.09Z"/><path class="cls-2" d="M50,127.81A78.2,78.2,0,0,1,.53,110.12c-2.32-1.9,2.33-30.95,27.39-38.26l5-1.33a1.88,1.88,0,0,1,1,3.63l-5,1.31C13.2,80.06,5,94.86,3.68,107.84a74.34,74.34,0,0,0,92.68,0C94.42,88.23,78.87,78,70.79,75.31L64.9,73.47A1.87,1.87,0,0,1,66,69.89l5.93,1.84c9.06,3,26.58,14.59,28.25,36.8a1.89,1.89,0,0,1-.68,1.59A78.19,78.19,0,0,1,50,127.81Z"/><path class="cls-2" d="M70.51,35.85A48.38,48.38,0,0,1,39.14,17.2a45.26,45.26,0,0,0-4.63,5.46,1.88,1.88,0,0,1-3-2.21,41.65,41.65,0,0,1,6.8-7.51,1.88,1.88,0,0,1,2.71.41A44.52,44.52,0,0,0,52.39,24.76,45,45,0,0,0,70.3,32a1.88,1.88,0,0,1,2.29,2.54l-.09.21A1.88,1.88,0,0,1,70.51,35.85Z"/><path class="cls-2" d="M42.21,39.24H36.57a1.88,1.88,0,0,1,0-3.75h5.64a1.88,1.88,0,1,1,0,3.75Z"/><path class="cls-2" d="M62.58,39.24H56.93a1.88,1.88,0,0,1,0-3.75h5.65a1.88,1.88,0,0,1,0,3.75Z"/><path class="cls-2" d="M42.52,56.94a1.88,1.88,0,0,1,2.27-3c3.45,2.61,7,2.61,10.48,0a1.88,1.88,0,1,1,2.27,3C52.86,60.49,47.43,60.66,42.52,56.94Z"/><path class="cls-2" d="M30.16,10.78c-9.74,10-17.63,36.38-4.51,61.48a1.83,1.83,0,0,1-.41,2.3A1.76,1.76,0,0,1,22.61,74c-11.52-21.93-8.39-46.82,2.31-62a26.56,26.56,0,0,1,9.63-8.52c14.17-7.15,31-2,38.31,4.17,10.39,8.74,15.75,42.54,3.64,65.72a1.74,1.74,0,0,1-3.09-1.62c12.12-23.22,5.86-50-1.08-59.24C64.58,2.14,41.17-.53,30.16,10.78Z"/><path class="cls-2" d="M29.88,56.23c-6.31-9.91-6.13-24.37,1.47-35.54a1.87,1.87,0,0,1,3.1,2.11c-6.8,10-6.86,22.84-1.4,31.42C36.41,59.5,43,65.3,49.57,65.6c8.9-.4,23.56-12.55,19.88-31.42a1.87,1.87,0,0,1,3.68-.72,32.71,32.71,0,0,1,.6,6.91c-.31,17.86-14.44,28.61-24.09,29C44.48,69.55,35.51,65.06,29.88,56.23Z"/><path class="cls-2" d="M70.06,38.5c.22-7.79-4-14.81-4.07-14.88a1.88,1.88,0,0,1,3.2-2c.2.32,4.87,8.05,4.62,17A1.88,1.88,0,0,1,70.06,38.5Z"/><path class="cls-2" d="M49.13,81.57c-7.27,0-13.29-2.78-16.93-7.8a1.88,1.88,0,1,1,3-2.2c2.91,4,7.85,6.24,13.89,6.24,5.78,0,11.37-2.18,14.48-7.06a1.88,1.88,0,0,1,3.17,2C60.39,82.8,47.41,81.57,49.13,81.57Z"/><path class="cls-2" d="M69.16,106.69H63.58a1.88,1.88,0,0,1,0-3.75h5.58a1.88,1.88,0,0,1,0,3.75Z"/><path class="cls-2" d="M89.55,60.79a1.92,1.92,0,0,0,3.84,0A1.92,1.92,0,0,0,89.55,60.79Z"/><path class="cls-2" d="M91.23,54.17c2.29-14.1.86-33.31-6.46-46.39A1.88,1.88,0,0,1,88.05,6c8.68,15.52,8.2,35,7.59,42.71-.08.94-.21,3.05-.7,6.11A1.88,1.88,0,0,1,91.23,54.17Z"/></g></g></svg>