<svg xmlns="http://www.w3.org/2000/svg" viewBox="0 0 106.87 77.08"><defs><style>.cls-1{fill:#005ca9;}.cls-2{fill:#2c2c2c;}</style></defs><title>Fichier 33</title><g id="Calque_2" data-name="Calque 2"><g id="Calque_1-2" data-name="Calque 1"><path class="cls-1" d="M99.41,76.66H69l-.44-.6-13-22.91L42.14,76.3l-.35.78H12.1L55.47,20Z"/><path class="cls-2" d="M84,52.86H98v3.42H86.61L97.39,70.2l-2.7,2.09L52.12,17.34,10.1,72.7,7.38,70.63,18.27,56.28H0V52.86H20.86L52.09,11.72Zm-7.89,9.32L64.8,73.43,52.12,51.17l-13,22.48L27.76,62.45C32.49,58.56,50,43.77,50.4,37.68h3.41a3.84,3.84,0,0,1,0,.48C54.18,43.55,71.72,58.59,76.07,62.18ZM71,62.41c-4.46-3.76-14.81-12.89-18.9-19.73-4.16,6.9-14.71,16.17-19.24,20l5.54,5.44L52.14,44.29,65.56,67.85Zm-42.63,11h3.42V70H28.37Zm-6.84,0H25V70H21.53Zm-6.84,0h3.42V70H14.69Zm70.23,0h3.42V70H84.92Zm-6.84,0H81.5V70H78.08Zm-6.84,0h3.42V70H71.24ZM53.63,0H50.21V8.15h3.42Zm49,52.63v3.42h4.27V52.63Z"/></g></g></svg>