<svg xmlns="http://www.w3.org/2000/svg" viewBox="0 0 236.95 229.95"><defs><style>.cls-1{fill:#2c2c2c;}</style></defs><title>Fichier 50</title><g id="Calque_2" data-name="Calque 2"><g id="Calque_1-2" data-name="Calque 1"><path class="cls-1" d="M232,220.12H219V192.26a4.92,4.92,0,1,0-9.83,0v27.86H190.12V144.77a4.5,4.5,0,0,0-.19-1.28,2.42,2.42,0,0,0,0-.25V122.49a4.91,4.91,0,0,0-4.91-4.91H56.88A4.91,4.91,0,0,0,52,122.49v20.75a5.1,5.1,0,0,0,.26,1.52,5.36,5.36,0,0,0-.1,1v78.39a4.91,4.91,0,0,0,4.92,4.91h.07A4.88,4.88,0,0,0,60,230H232a4.92,4.92,0,0,0,0-9.83ZM62,148.15H75.54v72H62Zm23.41,0h30.68v72H85.37Zm40.51,0h31v72h-31Zm40.84,0H180.3v72H166.72ZM61.8,127.41H180.13v10.92H61.8Z"/><path class="cls-1" d="M209.18.38v156.5a4.92,4.92,0,0,0,9.83,0V.38M23.09.77V220.12H4.91a4.92,4.92,0,0,0,0,9.83H38.33a4.92,4.92,0,1,0,0-9.83H32.92V0"/><path class="cls-1" d="M64.75,58.77a4.91,4.91,0,0,0-4.92,4.91v7.21a4.92,4.92,0,0,0,4.92,4.92h36a4.91,4.91,0,0,0,4.91-4.92v-36a4.91,4.91,0,0,0-4.91-4.91h-36a4.91,4.91,0,0,0-4.92,4.91v7.21a4.92,4.92,0,1,0,9.83,0V39.77H95.87V66H69.66v-2.3A4.91,4.91,0,0,0,64.75,58.77Z"/><path class="cls-1" d="M142.06,29.94a4.91,4.91,0,0,0-4.91,4.91v36a4.91,4.91,0,0,0,4.91,4.92h36A4.91,4.91,0,0,0,183,70.89v-36a4.91,4.91,0,0,0-4.91-4.91Zm31.13,36H147V39.77h26.21Z"/></g></g></svg>